<?xml version="1.0" encoding="utf-8"?>
<!-- Generator: Adobe Illustrator 22.1.0, SVG Export Plug-In . SVG Version: 6.00 Build 0)  -->
<svg version="1.1" id="Layer_1" xmlns="http://www.w3.org/2000/svg" xmlns:xlink="http://www.w3.org/1999/xlink" x="0px" y="0px"
	 viewBox="0 0 595.3 841.9" style="enable-background:new 0 0 595.3 841.9;" xml:space="preserve">
<style type="text/css">
	.st0{fill:#FFFFFF;}
	.st1{fill:#003399;stroke:#003399;stroke-miterlimit:10;}
</style>
<path class="st0" d="M-375,788.4c0-153.3,0-306.7,0-460c448.7,0,897.3,0,1346,0c0,153.3,0,306.7,0,460
	C522.3,788.4,73.7,788.4-375,788.4z M-191,737.9c2.2-2.9,4.6-6.4,7.2-9.7c2.9-3.6,6-6.9,8.9-10.4c2.5-3,5-5.7,9.1-6.5
	c4.4-0.9,8.5-0.2,11.8,2.6c1.9,1.6,3.3,3.9,4.9,5.9c1.1,1.5,2.3,1.4,3.7,0.6c0.7-0.4,1.4-0.9,2.1-1.3c3.4-2.3,4.1-2.5,6.9,0.3
	c3.1,3.1,6.8,3,10.6,2.9c0.5,0,1.3-0.2,1.6-0.6c2.6-3,5.5-5.9,7.5-9.2c3.4-5.6,5.9-11.8,10.7-16.7c2.8-2.9,5.3-5.9,7.9-8.9
	c1.9-2.2,4.2-3.2,7.1-2.9c1.7,0.1,3.4-0.2,5,0.1c4.1,0.6,8.2,1,12.1,2.2c7.5,2.3,8.8,2.1,13.8-4c0.8-1,2.2-1.5,3.5-2
	c2.2-0.9,4.9-1.1,6.7-2.4c3.9-3,7.5-6.5,11.1-9.9c1.9-1.7,3.5-1.8,5.5-0.5c1.3,0.8,2.7,1.4,4,2.1c0.4-0.6,0.7-0.8,0.8-1.1
	c4.5-7.4,8.9-15,13.8-22.2c1.5-2.1,4.5-3.2,6.9-4.6c0.4-0.3,1.5,0.4,2.2,0.8c2,1.4,3.9,2.9,5.7,4.3c1.7-0.9,3.4-1.6,4.9-2.6
	c1.3-0.9,2.9-1.9,3.6-3.3c1.8-3.3,3-6.8,4.6-10.2c1-2,2-4.3,3.7-5.5c3.3-2.5,7.1-4.3,10.6-6.4c1.3-0.8,2.2-0.4,2.7,1
	c0.7,1.9,1.3,3.8,1.9,5.6c1.3,3.9,2.7,7.8,4.1,11.7c0.2,0.4,1.5,0.9,1.9,0.7c2.8-1.6,5.4-3.4,8.1-5.2c2.7-1.8,5.1-4.4,8.6-4.1
	c8.4,0.7,14.4-3.7,20-8.9c4.7-4.4,9-9.3,13.5-13.9c0.7-0.7,1.8-1.4,2.7-1.6c3.5-0.5,6.9-0.9,10.2,1c0.8,0.5,2.2,0,3.3-0.3
	c0.8-0.2,1.4-0.9,2.1-1.3c3.6-2.1,4.1-1.9,6.2,1.6c1.6,2.7,3.3,5.3,5.3,8.6c3.4-3.8,6.4-7.1,9.2-10.5c1.4-1.7,2.5-3.7,3.7-5.6
	c1.1-1.8,2.6-2.9,4.9-2.7c2.7,0.3,5.3,0.1,7.6-1.6c2.9-2.2,5.9-4.3,8.7-6.6c2.1-1.7,4-1.9,6.7-1.3c2.5,0.6,5.2,0.4,7.8,0
	c2.5-0.4,4.9-1.4,7.3-2.4c3.7-1.5,7.4-2.9,10.8-4.9c4-2.4,7.9-4.4,12.8-4.1c1.5,0.1,3-0.1,4.4-0.5c3.3-0.7,6.6-1.7,9.9-2.4
	c1.2-0.3,2.8-0.3,3.9,0.3c3.5,1.6,6.9,2.9,10.9,1.7c1.6-0.5,3.6-0.5,4.9-1.4c3-2.1,6.1-2.6,9.6-2.4c1.1,0.1,2.5-0.4,3.4-1.1
	c1.8-1.6,3.3-3.5,5-5.2c5.5-5.3,10.9-10.7,16.6-15.7c3.2-2.8,7.1-5,10.9-7c4.9-2.6,10.1-4.5,15-7c2.6-1.3,5.2-3,7.4-4.9
	c2-1.8,4-3.4,6.8-3.9c1.4-0.2,3.2-0.8,4-1.8c1.8-2.4,3.3-5.2,4.6-7.9c2.5-5.4,6.6-9,11.9-11.3c2.6-1.1,5.8-1.2,7.3-4.5
	c1.1-2.5,2.9-4.6,4.5-6.9c2.6-3.6,7.4-4,10.4-0.7c1.2,1.3,2.1,2.8,3.2,4.1c1.2,1.3,2.3,1.2,3.1-0.5c1.5-3.3,2.9-6.7,4.5-9.9
	c0.9-1.8,2-3.7,3.5-4.9c3.5-2.8,7.2-5.3,11-7.6c0.9-0.5,2.5-0.2,3.6,0.3c1.4,0.6,2.6,1.7,3.8,2.7c1.2,1,2,0.7,2.8-0.5
	c1.6-2.5,3.5-4.9,4.9-7.5c2.1-3.9,5.7-4.5,9.3-4.2c3.6,0.3,7.1,1.4,10.6,2.5c2.1,0.6,4.1,1.7,5.9,2.8c3.9,2.5,6.2,6.4,8.7,10.1
	c3.2,4.7,3.1,4.8,7.7,2c1.9-1.2,3.2-0.9,4.3,1c1.6,2.7,3.3,5.4,4.7,8.2c0.9,1.8,1.8,1.7,3,0.3c1.2-1.4,2.4-2.7,3.5-4.2
	c3.3-4.4,8.8-4.1,11.4,0.7c3,5.7,6.1,11.4,9.1,17.1c1.2,2.3,2.4,4.6,3.7,7.2c1.7-1.4,3.1-2.4,4.2-3.6c2.9-3.1,4.1-3.4,8.1-1.6
	c1.8,0.8,3.2,0.7,4.2-1.2c0.8-1.5,1.7-3.1,2.7-4.5c1.5-1.9,1.9-4.7,4.7-5.5c3.8-1.1,7.3-2.8,9.5-6.2c0.6-1,1.2-2,2-2.9
	c0.9-1,2-2.4,3.1-2.6c6-1.1,12-2.8,18.3-1.5c2.4,0.5,3.7-0.6,5.3-2.2c4.1-3.9,4.1-5.1,9.9-3.2c1.6,0.5,3.5,0.3,5.2,0
	c3-0.6,5.9-1.5,8.9-2.4c1.3-0.4,2.5-1.4,3.8-1.8c3.6-1.1,7.2-2.3,10.9-3.2c2.1-0.5,4.6-1.4,6.5-0.7c3.6,1.3,5.9-0.9,8.5-2.2
	c1.9-0.9,3.5-2.5,5.2-3.8c2.9-2.1,5.9-3.7,9.7-3.4c0.9,0.1,1.8-0.5,2.7-0.9c3.5-2,6.5-4.7,10.8-5.3c5.3-0.8,10.7,1.2,13.8,5.6
	c1.3,1.8,3.1,4.1,5,4.6c4.6,1.2,8,3.7,11.2,7c0.9,0.9,2,1.7,2.4,2.8c1.6,3.8,3.2,7.7,4.3,11.7c1.8,6.5,5.4,11.9,9.4,17.1
	c1,1.3,1.9,1.4,2.9-0.1c3.1-5.2,6.1-10.5,9.3-15.6c1.7-2.7,3.2-5.8,5.6-7.9c3.1-2.7,6.8-4.6,10.3-6.9c2-1.3,3.4-0.6,4.6,1.1
	c1.1,1.5,2.1,3,3.2,4.5c2.2,2.9,2.6,2.9,5,0.2c0.2-0.2,0.3-0.4,0.5-0.6c5.5-6,9.9-13.1,17.1-17.5c3-1.8,5.7-1.2,8.5-1
	c0.4,0,0.9,0.7,1.2,1.2c1.6,2.6,3.1,5.3,4.6,8c1.8,3.2,2.7,3.3,4.9,0.3c3.6-4.6,7.1-9.2,10.6-13.8c1.9-2.4,3.5-2.8,6.1-1.1
	c1.8,1.2,3.1,1.1,4.9-0.4c2.4-2,5-4.5,8.4-3.7c3.9,1,6.1-0.7,8.1-3.7c1.7-2.5,3.8-4.5,6.9-5.5c2.3-0.7,4.6-1.8,6.7-2.9
	c3.1-1.6,6-3.3,8.2-6.3c1.4-1.9,3.5-3.7,5.6-4.8c3.1-1.6,6.5-2.6,9.9-3.8c2.6-0.9,5.3-1.6,8-2.4c1.4-0.4,2.9-0.6,4.2-1.2
	c2.3-1,4.5-2.8,6.9-3.3c3.5-0.7,7.1-0.4,10.7-0.7c2.7-0.2,4.7,1.1,6.4,2.8c3.2,3,4.2,2.9,7.5,0.1c2-1.6,4.4-3.2,6.9-3.6
	c5-0.7,9.7-1.7,14.3-3.7c5.9-2.6,11.9-4.6,17.4-8.4c4-2.8,9.1-4.1,13.6-6.3c3.2-1.6,6-3.7,9.1-5.5c1-0.6,2.3-0.9,3.4-1
	c1.9-0.1,3.9,0.6,5.7,0c4.5-1.3,8.9-2.8,12.1-6.5c1-1.1,2.1-0.9,2.9,0.3c1.6,2.5,3,5,4.6,7.4c0.5,0.8,1.2,1.5,2.2,2.8
	c1.7-2.4,3.1-4.6,4.5-6.6c1.5-2.1,3.1-4.2,4.7-6.4c-2.1-0.9-3,0.6-3.9,1.9c-1,1.3-1.8,2.8-2.8,4.1c-2.6,3.5-3.1,3.5-5.5-0.3
	c-1.5-2.3-2.9-4.6-4.5-7.1c-1.2,0.8-2.1,1.3-2.9,1.9c-1.5,1.2-2.7,2.7-4.3,3.7c-3.8,2.5-8.1,3.5-12.6,2.9c-2.2-0.3-4.3,0.3-5.7,1.8
	c-2.9,3-6.6,4.4-10.2,6c-4.8,2.2-9.5,4.6-14.2,7c-1.4,0.7-2.6,1.7-4,2.3c-2.7,1.2-5.5,2.4-8.3,3.3c-4.3,1.5-8.7,3-13.1,4.1
	c-4.1,1.1-8.2,1.8-11.5,4.7c-0.8,0.7-3.2,0.5-4-0.2c-3.4-3.1-7.2-4-11.5-3.3c-4.1,0.7-8.3,1.4-12.3,2.8c-3.7,1.2-7,3.3-11.1,3.3
	c-0.6,0-1.2,0.5-1.8,0.8c-2.6,1.1-5.2,2.8-7.9,3.3c-2.9,0.5-5.1,1.5-7,3.7c-3.9,4.6-8.2,8.7-14.3,10.2c-4.9,1.2-8.5,4.5-11.3,8.4
	c-1.2,1.6-2.4,2.4-4.1,2.1c-3.7-0.7-6.7,0.6-9.5,2.7c-2.4,1.9-4.8,1.9-7.4,0.5c-1.5-0.8-3.1-0.7-4.2,0.8c-3.9,5-7.8,9.9-11.5,15
	c-1,1.4-1.9,1.3-2.7,0.1c-1.5-2.2-3-4.4-4.3-6.7c-1.8-3.2-6.3-5.2-9.3-3.2c-4.3,2.7-8.3,6-11.9,9.6c-3,2.9-5.4,6.5-8.1,9.7
	c-1.5,1.8-2.8,1.8-4.3-0.1c-1.2-1.6-2.3-3.2-3.4-4.9c-1.3-2-2.9-1.8-4.5-0.7c-3.3,2.1-6.6,4.3-9.9,6.4c-1.1,0.7-2.4,1.4-3.1,2.4
	c-1.9,2.7-3.5,5.6-5.2,8.5c-2.4,4-4.7,8-7.3,11.9c-0.9,1.3-1.9,1.6-3.4,0.1c-4.3-4.7-6.2-10.4-8.3-16.2c-2-5.6-3.1-11.8-8.6-15.5
	c-0.3-0.2-0.5-0.7-0.9-0.9c-1.8-1.1-3.5-2.4-5.5-3c-2.6-0.8-4.6-1.8-6.3-4c-3.8-5.1-8.6-8.9-15.4-8c-2.9,0.4-5.6,2.1-8.3,3.6
	c-2.2,1.2-4.2,2.5-6.9,2.5c-1.7-0.1-3.6,0.3-5,1.1c-3.7,2.2-7.5,4.3-10.7,7.2c-3,2.7-5.9,2.4-9.3,1.7c-0.7-0.1-1.5-0.2-2.1,0
	c-6.3,2.2-12.6,4.3-18.8,6.7c-4.4,1.7-9.2,2.4-13.4,1.1c-4.3-1.3-6.2,1-8.6,3.3c-0.5,0.5-0.9,1-1.4,1.4c-1.7,1.8-3.4,1.7-5.8,0.9
	c-1.8-0.7-3.9-0.6-5.9-0.4c-1.6,0.1-3.1,0.9-4.7,1.2c-3.6,0.8-7.5,0.7-9.9,4.3c-0.8,1.2-1.5,2.4-2.4,3.5c-1.6,2.2-3.6,3.9-6.5,4.1
	c-0.8,0.1-1.9,0.5-2.4,1.1c-2,2.6-4,5.2-5.8,8c-1.8,2.9-3.8,4-6.3,2.5c-2.3-1.4-3.9-0.9-5.6,0.6c-1,0.9-1.8,2-2.9,2.7
	c-0.7,0.4-2.3,0.5-2.6,0.1c-1.2-1.9-2-4-3.1-5.9c-3-5.7-6-11.4-9.2-17c-2-3.4-8.6-3.6-11.2-0.7c-1.6,1.8-3.2,3.7-5,5.8
	c-0.9-1.1-1.6-1.8-2.1-2.6c-1.3-2.2-2.5-4.5-3.7-6.8c-1.8-3.3-2.5-3.5-5.6-1.2c-0.5,0.4-0.9,1.2-1.5,1.3c-1,0.2-2.8,0.4-3.1-0.2
	c-3.4-5.4-7.2-10.3-12.2-14.3c-1.1-0.9-2.5-1.5-3.8-1.8c-3.5-0.7-7.1-0.8-10.5-1.9c-3.6-1.2-6.5,0.7-9.7,1.4
	c-0.5,0.1-0.9,0.7-1.2,1.2c-1.6,2.6-3.3,5.2-4.8,7.8c-1,1.7-2.1,2-3.6,0.8c-0.7-0.6-1.3-1.2-2.1-1.8c-2.7-2-3.8-1.9-6.3,0.2
	c-1.9,1.6-4,3.3-6.2,4.4c-3.6,1.8-6.4,4-7.8,8c-1.2,3.4-3,6.5-4.8,10.2c-2.1-2.2-3.8-4-5.6-5.9c-1.1-1.2-2.2-2-3.9-0.8
	c-0.4,0.3-1.1,0.4-1.7,0.5c-2.9,0.7-5.1,2.1-6.5,4.9c-1.1,2.1-2.5,4.1-4.1,6c-0.9,1.1-2.2,2.2-3.5,2.5c-5.8,1.2-10,4.7-13.2,9.4
	c-2,3-3.5,6.4-5.5,9.4c-0.7,1.1-1.9,2.1-3.1,2.4c-3.9,1.2-7.2,3-9.9,6.2c-1,1.2-2.8,1.9-4.4,2.6c-2,0.9-4.3,1.2-6.2,2.3
	c-5.8,3.2-11.8,6.4-17.2,10.1c-5,3.4-9.7,7.5-14.3,11.6c-3.6,3.2-6.6,7-10,10.4c-0.8,0.8-2.3,1.6-3.5,1.5c-4.2-0.3-7.6,1.3-11.2,3.4
	c-3.6,2.2-8.1,2.4-11.4,0.2c-4.2-2.8-7.9-1.8-11.8-0.4c-4.4,1.5-8.7,3.1-13.5,2.8c-3.8-0.2-6.7,2.2-9.9,3.6
	c-2.5,1.1-4.8,2.9-7.4,3.9c-4.3,1.6-8.7,2.9-13.1,4.2c-0.6,0.2-1.3-0.1-1.9-0.2c-1.7-0.6-3.4-1.1-5-1.8c-2.8-1.3-2.9,1.7-4.4,2.6
	c-0.6,0.3-1,0.9-1.6,1.2c-2.2,1.6-4.4,3.3-6.8,4.6c-2,1.1-4.4,2.5-6.5,2.3c-4.2-0.2-6.2,1.7-8.1,5.1c-2.3,4.1-4.9,8.1-9,10.8
	c-1.3,0.8-2.1,0.9-2.9-0.3c-1.4-2.2-2.7-4.3-4-6.5c-1.7-2.8-2.6-3.2-5.3-1.2c-3.4,2.5-6.6,2.9-10.2,0.8c-0.9-0.5-2.3-0.2-3.4-0.1
	c-1.4,0.2-2.8,0.6-4.1,1.1c-1.2,0.5-2.4,1-3.3,1.9c-3.5,3.6-6.8,7.5-10.4,11c-2.5,2.4-5.1,4.7-7.9,6.7c-3.9,2.7-8.1,4.9-13.1,4.5
	c-2.7-0.2-4.9,0.6-7.1,2.3c-2.7,2.1-5.7,3.9-8.6,5.8c-1.4,0.9-2.5,0.8-3.1-1c-1.4-4.2-2.8-8.3-4.2-12.5c-0.7-2.1-1.7-4.2-2.5-6.3
	c-4.5,2.8-8.6,5.4-12.8,7.9c-1,0.7-2.4,1.3-2.9,2.2c-2.2,4.4-4.1,9-6.2,13.5c-0.4,0.9-1,1.8-1.7,2.4c-4.4,3.5-6,3.8-10.2,0.1
	c-2.6-2.3-4.3-2.5-6.9-0.3c-1.8,1.6-4.3,2.2-5.7,4.5c-3.8,6.3-7.6,12.6-11.6,18.9c-0.6,0.9-2,1.7-3.1,1.7c-1.1,0-2.2-1.1-3.4-1.3
	c-1.2-0.2-3-0.3-3.8,0.3c-3.8,3.1-7.4,6.4-10.9,9.8c-1.6,1.5-3.1,2.8-5.6,2.8c-2.6,0-4.9,1.2-6.6,3.4c-3.8,4.7-5.2,5.1-11.2,3.1
	c-2.6-0.9-5.4-1.7-8.1-1.9c-4.4-0.3-8.8-0.2-13.2,0c-1.2,0-2.6,0.7-3.5,1.5c-3.4,3.4-6.6,7-9.8,10.6c-1.5,1.7-3,3.5-4.3,5.5
	c-3.4,5.4-6.4,11.2-10.2,16.4c-3.6,5-4.8,5.4-10.6,3.6c-1.1-0.3-2-1.2-2.9-1.9c-1.5-1.2-2.9-3.3-4.4-3.3c-1.6,0-3.3,1.9-4.9,2.9
	c-1.7,1.1-3.6,1.6-4.7-0.5c-2.1-3.9-5.3-6.5-9.5-7.7c-3.6-1-7.7-1.8-10.7,0.8c-4.2,3.6-8,7.9-11.8,12c-2.4,2.7-4.8,5.6-6.7,8.7
	c-3,4.9-3.6,4.9-9,3c-3.9-1.4-8.5-2.1-12.3,1.2c-2.8,2.4-5.5,4.9-9.2,5.4c-2.8,0.4-4.9,1.9-6.7,3.5c-3,2.7-3.4,3.2-7.3,0.1
	c-2.1-1.7-3.8-1.8-5.3-0.4c-2.9,2.8-5.6,5.9-8.8,8.5c-4.7,3.8-2.9,4.3-8.5,0.9c-2.6-1.6-5.1-2.4-8.2-2.2c-1.5,0.1-3.2-0.1-4.6-0.6
	c-3.1-1.3-6.2-1.5-9.2-0.2c-2,0.9-3.5,0.6-4.9-0.9c-0.6-0.6-1.4-1.2-2.1-1.8c-3.6-2.8-9.5-2.2-13.3,1.8c1.3-0.3,2.3-0.3,3-0.7
	c4.3-2.4,8.2-2,11.5,1.7c0.1,0.1,0.1,0.1,0.2,0.1c2.9,2.4,4.3,2.3,7.7,0.6c1.1-0.6,2.7-0.5,4-0.2c3.2,0.7,6.3,2.2,9.5,2.5
	c2.8,0.3,5.2,1,7.6,2.4c1.9,1.2,4.1,1.3,5.9-0.5c2.9-2.7,5.9-5.4,8.8-8.1c2.8-2.5,3.7-2.9,6.7-0.9c3.8,2.5,5.2,1.3,8.9-1.6
	c1.7-1.3,3.7-2.6,5.8-3.1c3-0.7,5.4-2,7.5-4.1c2.2-2.3,4.8-4.2,8.1-3.4C-198.3,735.3-195,736.6-191,737.9z M-361,338.8
	c1.7,0,3.3-0.1,5,0c1.4,0.1,1.9-0.5,1.9-1.9c0-1.4-0.5-1.9-1.9-1.9c-3.2,0.1-6.5,0.1-9.7,0c-1.3,0-2,0.2-2,1.7c0,1.5,0.6,2.1,2.1,2
	C-364.2,338.7-362.6,338.8-361,338.8z M-337,334.2c0.2,0,0.4-0.1,0.6-0.1c0.8,1.6,1.7,3.2,2.5,4.8c0.8,1.4,0.5,3.8,3.2,3.4
	c0-3.8,0-7.4,0-11.1c-0.3,0-0.6-0.1-0.9-0.1c-0.1,2.4-0.3,4.9-0.4,7.3c-1.5-2-2.4-4.1-3.5-6.1c-0.3-0.5-1.1-1-1.7-1.1
	c-0.3-0.1-1,0.8-1.1,1.2c-0.1,3-0.1,6,0,9c0,0.4,0.5,0.7,0.8,1.1c0.2-0.1,0.3-0.1,0.5-0.2C-337,339.6-337,336.9-337,334.2z
	 M-207.1,336.3c1.8-1.5,1.6-3.5,0-4.6c-1.1-0.7-3.4-0.6-4.5,0.1c-1.6,1-1.4,3,0,4.5c-1.6,2.3-1.7,4.1-0.4,5.4c1.2,1.1,4.1,1.1,5.3,0
	C-205.2,340.4-205.4,338.5-207.1,336.3z M-246.9,335.6c0.9-0.8,0.9-2.8-0.6-3.9c-1-0.7-3.1-0.7-4.3-0.2c-1.6,0.7-1.6,2.4-0.8,4.1
	c0.2,0.4-0.1,1.3-0.3,1.8c-1.3,2.4-0.1,5,2.6,5c1.2,0,3.2-0.6,3.6-1.5C-246.2,339.7-246.8,337.9-246.9,335.6z M-10.2,786
	c0.4-0.3,1.8-0.7,2.2-1.6c0.4-0.9-0.2-2.2-0.3-3.4c0-0.7,0.2-1.4,0.1-2.1c-0.1-1.1-0.1-3.1-0.6-3.2c-1.4-0.4-3.2-0.4-4.6,0
	c-0.5,0.1-0.5,2.1-0.7,3.2c-0.1,0.7,0.3,1.6,0.1,2.1C-15.4,783.9-14.2,786.1-10.2,786z M-311.7,333.6c0.2-2.1-1.8-3.2-4.6-2.5
	c-1.8,0.4-2.7,1.8-2.5,3.2c0.1,1,1.4,2,2.3,2.8c0.4,0.4,1.4,0.1,1.9,0.5c0.8,0.6,1.3,1.4,2,2.1c-0.8,0.5-1.7,1.4-2.5,1.5
	c-1.2,0-2.5-0.6-4.2-1.1c0.5,0.9,0.8,1.8,1.1,1.8c1.9,0.1,3.9,0.3,5.7-0.1c0.7-0.2,1.4-2,1.4-3c-0.1-0.8-1.2-1.7-2.1-2.3
	c-0.6-0.4-1.5-0.2-2.1-0.6c-0.7-0.4-1.2-1.1-1.8-1.7c0.7-0.4,1.4-1.2,2.2-1.2C-313.9,332.9-312.8,333.3-311.7,333.6z M-158.7,774.9
	c-2.7,0-3.8,1.8-2.8,4.3c0.2,0.6,0.1,1.5-0.2,2.1c-0.9,1.5-0.8,3,0.6,4c1.6,1.2,3.5,1.2,5.1-0.1c1.3-1.1,1.5-2.5,0.4-4
	c-0.3-0.5-0.4-1.5-0.2-2.1C-154.8,776.7-156,774.9-158.7,774.9z M-271.6,331.3c-0.3,0-0.7,0-1,0c0,2.4,0,4.8,0,7.2
	c-1.4-1.4-2.1-2.9-3-4.3c-0.8-1.2-0.5-3.9-3.1-2.7c0,3.8,0,7.3,0,10.9c0.3,0,0.6,0,0.9,0c0-2.7,0-5.4,0-8.5c3,2.6,2.6,7,6.3,8.9
	C-271.6,338.6-271.6,334.9-271.6,331.3z M-362.5,767.3c-0.4,2.7-2.7,2.3-4.4,3.2c1,0.4,2.4,0.8,3,0.3c1.2-1,2.5-2.4,3-3.9
	c0.6-2,0.8-4.5-1.2-6c-0.9-0.7-2.8-0.8-3.9-0.3c-0.9,0.4-1.7,2.1-1.8,3.2C-367.9,766.6-366.5,767.5-362.5,767.3z M-238.2,332.1
	c-0.1-0.2-0.5-1.1-0.7-1c-1.2,0.2-2.8,0.3-3.6,1.1c-1.9,1.9-2.3,4.5-1.8,7.2c0.5,2.3,1.7,3.4,3.9,3.2c2.1-0.2,3.2-1.7,3.1-4
	c-0.1-2.3-1.4-3.2-3.6-3.1c-0.5,0-1,0-1.6,0c-0.1-0.3-0.2-0.6-0.3-0.9C-241.5,333.8-240.1,333-238.2,332.1z M-349.4,476.2
	c1.6,1.3,3.2,1.2,4.6-0.2c1.5-1.4,2.3-5.2,1.4-7.5c-0.8-2.1-2.8-3-4.8-2.2c-1.9,0.8-2.9,3.2-1.5,5c1,1.2,2.9,1.8,4.6,2.8
	C-345.3,476.1-347.7,475.6-349.4,476.2z M-235.8,337c0.1,0,0.1,0,0.2,0c0,0.7,0,1.3,0.1,2c0.3,1.9,1,3.3,3.2,3.4
	c2.3,0.1,3.4-1.2,3.5-3.3c0.1-2,0-4.2-0.6-6.1c-0.3-0.9-1.8-2-2.8-2c-0.9-0.1-2.2,1-2.7,1.9C-235.4,334.2-235.5,335.7-235.8,337z
	 M-349.2,419.4c1.6,1.3,3.1,0.8,4.5-0.3c2-1.8,2.3-6.4,0.6-8.8c-1-1.4-2.4-2.3-3.7-1.3c-1.2,1-2.1,2.7-2.3,4.3
	c-0.2,1.7,1.3,2.5,3,2.6c0.7,0,1.5,0,2.3,0C-345.2,418.9-347.3,418.8-349.2,419.4z M-316,415.2c2.2,1.7,2.7,4.7,6,4.8
	c-1.6-2.2-2.9-4-4.3-5.9c1.4-1.6,2.7-3.1,4-4.6c-0.3-0.3-0.6-0.6-0.9-0.9c-1.6,1.7-3.3,3.4-5.2,5.4c-0.2-2.1-0.4-3.6-0.6-5.2
	c-0.3,0-0.5,0-0.8,0.1c-0.5,3.6-0.4,7.3-0.1,10.9c0.3,0,0.6,0,0.9,0.1C-316.6,418.5-316.3,417-316,415.2z M-361.5,409.8
	c-0.1-0.2-0.4-1.1-0.7-1.1c-0.9,0-2.1,0.1-2.8,0.6c-2.4,1.8-3.4,5.6-2.4,8.5c0.7,2,2.2,2.6,4.2,2.2c2.2-0.5,2.9-2.1,2.7-4.1
	c-0.2-1.9-1.3-3-3.3-3c-0.6,0-1.3,0-1.9,0c-0.1-0.2-0.2-0.5-0.4-0.7C-364.7,411.5-363.2,410.7-361.5,409.8z M-221.2,341.2
	c1.8,2,5,1.4,5.7-1c0.6-2.2,0.5-4.7,0.2-6.9c-0.3-2.1-2.1-2.7-4-2.1c-2.2,0.6-2.6,2.5-2.5,4.3c0.1,2,1.6,2.8,3.5,2.8
	c0.6,0,1.2-0.1,1.9-0.2C-216.6,341.2-218.7,341.3-221.2,341.2z M-366.8,386.3c0,0.2,0,0.4,0,0.7c1.1-0.1,2.4,0.1,3.4-0.3
	c2.9-1.2,3.9-7.6,1.5-9.6c-0.9-0.7-2.7-1.1-3.6-0.6c-1,0.5-1.9,1.9-2.2,3.2c-0.2,0.8,0.2,2.3,0.8,2.7c1.2,0.7,2.8,0.9,4.2,1.3
	C-363.2,385.2-363.2,385.2-366.8,386.3z M-349.3,386.1c0,0.3,0,0.6,0,0.9c1,0,2,0.2,2.9,0c2-0.6,2.9-2.1,3.2-4.1
	c0.3-2.2,0.6-4.5-1.4-5.9c-0.9-0.6-2.7-0.8-3.7-0.3c-0.9,0.5-1.8,2-1.9,3.1c-0.2,2.7,1,3.5,5.2,3.7
	C-345.2,386.1-347.6,385.7-349.3,386.1z M-359.2,414c0.4,1.9,0.3,3.3,0.9,4.3c0.6,0.9,1.8,1.7,2.9,1.8c0.9,0.1,2.2-0.7,2.8-1.5
	c1.5-2.1,0.9-7-0.8-8.9c-1.2-1.4-3-1.5-3.9,0C-358.2,411.1-358.7,412.8-359.2,414z M280.5,784.9c0.9,0.7,1.1,1,1.3,1
	c2.3,0.4,4.3-0.7,5.2-2.9c1.1-2.9,0.6-6.4-1.2-7.6c-2.3-1.5-5.3,0.1-5.5,2.8c-0.2,3.1,1.2,4,5.4,3.8
	C285.3,784.8,283.1,784.7,280.5,784.9z M133.6,785.4c0.4,0.2,0.8,0.5,1.2,0.5c3.7,0.3,6.2-3.7,5.1-8.1c-0.6-2.1-2.3-3.3-4.2-2.9
	c-2.1,0.4-3.1,2-2.7,4.5c0.3,2.5,1.9,2.8,3.9,2.6c0.4,0,0.9,0,1.3,0c0.1,0.3,0.2,0.6,0.3,0.9C136.9,783.8,135.4,784.5,133.6,785.4z
	 M-310.7,477.3c0.2-0.3,0.4-0.5,0.6-0.8c-1-1.1-1.9-2.2-2.9-3.4c-1.1-1.3-1.3-2.5,0.2-3.8c0.9-0.7,1.6-1.7,2.4-2.6
	c-0.2-0.2-0.4-0.5-0.7-0.7c-1.7,1.5-3.3,3-5.2,4.7c-0.2-1.7-0.4-3-0.6-4.4c-0.3,0-0.6,0.1-1,0.1c-0.1,3.5-0.5,7,0.2,10.4
	c0.3,0,0.5,0.1,0.8,0.1c0.3-1.3,0.6-2.6,1-4.6c1.2,1.3,1.9,2.2,2.8,2.9C-312.4,476-311.6,476.6-310.7,477.3z M-316.1,383
	c2.5,0.8,2.9,4.1,6.3,4c-1.3-1.5-2.2-2.7-3.3-3.7c-1.5-1.4-1.2-2.5,0.1-3.7c0.9-0.8,1.6-1.8,2.4-2.8c-0.2-0.2-0.5-0.4-0.7-0.7
	c-1.6,1.5-3.3,3.1-5.1,4.7c-0.3-1.7-0.5-3.1-0.6-4.4c-0.3,0-0.7,0.1-1,0.1c0,3.5-0.5,6.9,0.2,10.4c0.3,0,0.5,0.1,0.8,0.1
	C-316.6,385.7-316.3,384.3-316.1,383z M-320.7,342.6c0.2-0.2,0.5-0.3,0.7-0.5c-1.1-3.4-2.1-6.7-3.3-10.1c-0.1-0.4-0.8-0.8-1.3-0.8
	c-0.4,0-1,0.4-1.1,0.7c-1.2,3.4-2.3,6.8-3.4,10.2c0.2,0.1,0.5,0.3,0.7,0.4c0.4-0.6,1-1.2,1.2-1.8c0.4-1.3,1.1-1.8,2.5-1.8
	c1.4,0,2.1,0.5,2.6,1.7C-321.7,341.4-321.1,342-320.7,342.6z M-320,414.7c-0.4-1.5-0.6-3.1-1.4-4.4c-1.2-2.2-3.5-2.3-4.8-0.1
	c-0.7,1.3-1.1,2.9-1.2,4.4c-0.1,3.8,1.1,5.5,3.5,5.6C-321.4,420.2-320.4,418.6-320,414.7z M295.5,776.3c0-0.4,0-0.7,0-1.1
	c-1,0-2.2-0.3-3.1,0c-3.1,1.1-4.5,7.7-1.9,9.7c1,0.8,3.2,0.9,4.2,0.3c0.9-0.5,1.6-2.5,1.4-3.7c-0.4-3-2.8-3-5.3-2.6
	C291.6,776.4,293.5,776.3,295.5,776.3z M0.6,775.6c-0.6-0.2-1.2-0.7-1.8-0.6c-2.2,0.1-3.8,1.4-4.2,3.5c-0.5,2.4-1,5.1,1.4,6.8
	c0.9,0.6,2.9,0.6,3.8,0c0.9-0.6,1.6-2.3,1.5-3.5C1,778.8-1.4,778.6-4,779C-3.5,776.1-1.4,776.5,0.6,775.6z M885.5,776.2
	c0-0.3,0-0.5,0-0.8c-0.7-0.1-1.5-0.5-2.2-0.4c-3.2,0.5-4.8,4.1-3.8,8.2c0.5,2.2,2.6,3.4,4.8,2.6c1.8-0.7,2.6-2.8,1.9-4.8
	c-0.9-2.7-3.1-2.2-5.2-2.1C881.6,776.3,883.6,776.4,885.5,776.2z M590.4,776.1c0.1-0.2,0.1-0.5,0.2-0.7c-0.8-0.1-1.5-0.5-2.2-0.4
	c-3.2,0.5-4.8,4.1-3.8,8.2c0.5,2.3,2.6,3.4,4.8,2.6c1.8-0.7,2.6-2.8,1.9-4.8c-0.9-2.7-3.1-2.2-5.1-2.1
	C587,776.7,587,776.7,590.4,776.1z M-334.1,764.9c-0.2-1.8-0.4-3.1-0.6-4.9c-1.6,2.3-1.5,9.7,0,11.1c0.3-1.4,0.6-2.8,0.9-4.1
	c2.5,0.9,2.9,4.1,6.2,4c-1.3-1.6-2.3-2.8-3.4-3.9c-1.1-1.2-1.1-2.2,0.1-3.4c1-0.9,1.7-2,2.6-2.9c-0.2-0.2-0.5-0.4-0.7-0.7
	C-330.5,761.6-332.2,763.1-334.1,764.9z M957.2,782.6c-0.7,0.6-1.3,1.5-2.1,1.9c-0.8,0.4-1.8,0.4-2.7,0.6c1.9,1.5,3.5,1,4.9-0.4
	c1.5-1.6,2.1-6.3,0.7-7.9c-0.8-0.9-2.7-1.7-3.7-1.4c-1.1,0.3-2.4,1.9-2.6,3.1C951.1,781.3,952.8,782.4,957.2,782.6z M-165.7,782
	c-0.4,2.7-2.6,2.6-4.6,3c1.6,1.3,2.9,1.2,4.5,0c1.8-1.5,2.6-5.6,1.5-7.9c-0.8-1.7-2.2-2.5-4.1-2.1c-1.9,0.4-2.8,1.7-2.7,3.6
	C-171,781.6-169.8,782.5-165.7,782z M-22.6,784.8c0,0.2,0,0.4,0,0.6c0.4,0.2,0.9,0.6,1.1,0.5c1.4-0.5,3.6-0.9,3.9-1.9
	c0.7-2.2,0.9-4.8,0.6-7.1c-0.3-1.8-2.2-2.3-4.1-1.8c-2.3,0.7-2.7,2.5-2.4,4.6c0.3,2,1.7,2.5,3.4,2.5c0.6,0,1.2-0.1,2-0.2
	C-18.7,784.6-20.6,784.8-22.6,784.8z M-349.2,342.4c3.6,0,3.2-3.2,5-4.2c1.4,1.4,1.2,4.2,4.1,4.2c-0.7-1.3-1.1-2.7-2-3.6
	c-1.5-1.6-0.9-2.9,0.2-4.3c0.7-0.9,1.1-2,1.7-3c-0.3-0.2-0.6-0.4-0.9-0.6c-1.1,1.5-2.1,2.9-3.2,4.5c-3.3-3.9-3.3-3.9-4.7-3.8
	C-345.2,335-345,338.6-349.2,342.4z M124.3,784.8c2.1,1.5,3.4,1.4,4.9,0.2c1.8-1.5,2.6-5.9,1.3-8.1c-0.9-1.7-2.4-2.3-4.2-1.8
	c-2.3,0.7-2.7,2.5-2.3,4.6c0.3,2,1.7,2.5,3.4,2.5c0.6,0,1.2-0.1,1.9-0.2C128.8,784.6,126.9,784.8,124.3,784.8z M276.9,781.9
	c-0.5,2.7-2.6,2.8-4.6,3c1.3,1.4,2.7,1.4,4.2,0.3c2-1.4,2.9-5.8,1.7-8.2c-0.9-1.8-2.4-2.5-4.4-1.9c-2.3,0.8-2.6,2.6-2.2,4.7
	c0.3,2,1.8,2.4,3.5,2.4C275.6,782.2,276.2,782,276.9,781.9z M-268.5,330.9c-0.5,0.2-0.9,0.3-1.4,0.5c3.8,3.7,4,7.3-0.2,11
	c3.5,0,3.1-3.2,4.8-4.2c1.4,1.3,1.2,4.2,4.2,4.2c-1.2-2.1-2.2-3.9-3.2-5.7c1.1-1.8,2.1-3.5,3.1-5.2c-0.3-0.2-0.6-0.4-0.9-0.7
	c-1,1.5-2.1,3-3.2,4.6C-266.4,333.8-267.5,332.3-268.5,330.9z M933.9,780.5c0,3.8,0.9,5.4,3.2,5.5c2.6,0.2,3.9-1.5,3.9-5.4
	c0-3.7-1.2-5.6-3.5-5.6C935.1,774.9,933.9,776.7,933.9,780.5z M575.4,780.5c0,3.5,0.8,5.1,2.8,5.4c2.8,0.5,4.3-1.2,4.3-5.2
	c0.1-3.9-1.1-5.8-3.6-5.8C576.6,774.9,575.4,776.7,575.4,780.5z M435,779.9c-0.1-0.4-0.2-1.5-0.4-2.5c-0.4-1.7-1.7-2.5-3.3-2.4
	c-2.1,0.1-3.2,1.7-3.3,4.8c-0.1,4.2,0.7,6,2.9,6.2C433.7,786.3,435,784.6,435,779.9z M721.2,780.5c-0.2-1.1-0.2-2.1-0.5-3.2
	c-0.4-1.7-1.7-2.5-3.3-2.4c-2.2,0.1-3.2,1.7-3.3,5c-0.1,3.9,0.8,5.7,3,6C719.8,786.3,721.1,784.7,721.2,780.5z M573.7,780.5
	c-0.2-1.1-0.2-2.1-0.5-3.2c-0.4-1.7-1.7-2.5-3.3-2.4c-2.2,0.1-3.2,1.8-3.3,5c-0.1,3.9,0.8,5.7,3,6
	C572.3,786.3,573.6,784.7,573.7,780.5z M-320.2,381.8c-0.1-1,0.1-2.2-0.4-2.9c-0.8-1.1-1.9-2.4-3-2.7c-1.7-0.4-3.1,0.8-3.3,2.6
	c-0.2,1.9-0.2,3.9,0,5.9c0.2,1.7,1.5,2.5,3.2,2.5c1.8,0,2.8-1,3.2-2.6C-320.4,383.7-320.3,382.8-320.2,381.8z M426.2,780.5
	c-0.2-1.1-0.2-2.1-0.5-3.2c-0.4-1.7-1.7-2.5-3.3-2.4c-2.2,0.1-3.2,1.8-3.3,5c-0.1,3.9,0.8,5.7,3,6
	C424.8,786.3,426.1,784.7,426.2,780.5z M-358.9,471.5c0,4,1.1,5.7,3.6,5.6c2.4-0.1,3.4-1.8,3.4-5.6c0-3.7-1.2-5.5-3.7-5.4
	C-357.8,466.2-358.9,468-358.9,471.5z M-337.8,765.8c-0.1-1-0.2-1.9-0.4-2.9c-0.3-1.6-1.4-2.7-3.1-2.7c-1.8-0.1-3.1,0.9-3.4,2.7
	c-0.2,1.9-0.2,4,0,5.9c0.2,1.7,1.5,2.5,3.2,2.5c1.7,0,2.8-1,3.2-2.6C-338,767.7-337.9,766.8-337.8,765.8z M-359,381.6
	c0,3.8,1,5.5,3.4,5.6c2.5,0.1,3.7-1.7,3.7-5.6c0-3.6-1.1-5.3-3.4-5.4C-357.7,376-358.9,377.9-359,381.6z M-320.2,472.1
	c-0.1-1.2-0.1-2.2-0.3-3.2c-0.4-1.7-1.4-2.9-3.3-2.8c-1.8,0-3.1,1-3.2,2.8c-0.2,2-0.2,4.2,0.3,6.1c0.2,0.9,1.9,2,2.9,2
	c1,0,2.3-1,3-2C-320.2,474.3-320.4,473-320.2,472.1z M868.7,780c-0.1-0.5-0.1-1.6-0.4-2.6c-0.4-1.7-1.6-2.5-3.3-2.4
	c-2.2,0.1-3.3,1.8-3.4,5.2c-0.1,3.6,0.9,5.5,3,5.8C867.4,786.3,868.7,784.7,868.7,780z M-189.7,332.6c2,0.5,3.3,0.8,4.6,1.1
	c-0.6,1.3-1,2.6-1.8,3.8c-0.6,1-1.5,1.7-2.2,2.6c-0.4,0.6-0.7,1.3-1,2c2.6,0,4.9,0,7.1,0c0-0.3,0.1-0.5,0.1-0.8
	c-1.5-0.2-2.9-0.3-4.7-0.5c1.1-1.3,2-2.4,2.9-3.4c1.3-1.5,1.9-3.1,0.9-5c-1-1.9-2.7-1.7-4.3-1.3
	C-188.9,331.3-189.4,332.2-189.7,332.6z M-302.7,331c-0.4,0.1-0.7,0.3-1.1,0.4c1.2,3.5,2.3,7,3.6,10.4c0.1,0.2,2,0.2,2.1-0.1
	c1.3-3.4,2.4-6.9,3.6-10.4c-0.3-0.1-0.7-0.3-1-0.4c-1.7,2.8-2.1,6.2-3.6,9.2C-300.5,337.1-301,333.8-302.7,331z M-329.3,419.8
	c0-0.2,0.1-0.5,0.1-0.7c-1.4-0.2-2.8-0.4-4.2-0.6c-0.1-0.2-0.2-0.4-0.3-0.7c0.4-0.2,0.9-0.3,1.1-0.6c1-1.4,2.4-2.7,2.8-4.3
	c0.3-1.1-0.3-2.9-1.2-3.7c-0.8-0.7-2.5-0.4-3.7-0.3c-0.4,0.1-0.8,1.1-1.3,1.9c0.8,0,1,0,1.3,0c1.1,0.1,2.3,0.2,3.4,0.3
	c-0.4,1.2-0.7,2.4-1.2,3.5c-0.2,0.5-0.8,0.8-1.2,1.3c-0.9,1.1-1.7,2.3-2.7,3.7C-333.6,419.8-331.4,419.8-329.3,419.8z M412.1,784.3
	c1.2-1,2.1-1.5,2.6-2.3c0.8-1.3,1.8-2.7,2-4.1c0.3-2-1.3-3-3.2-3c-1.2,0-2.7-0.1-3.3,2.1c0.9-0.3,1.2-0.5,1.6-0.5
	c1,0.1,2.2-0.1,2.9,0.5c0.4,0.3,0.2,1.9-0.3,2.7c-0.8,1.3-2.1,2.3-3,3.5c-0.5,0.7-0.9,1.4-1.5,2.4c2.8,0,4.9,0,7.1,0
	c0-0.3,0.1-0.6,0.1-0.8C415.8,784.7,414.3,784.5,412.1,784.3z M559.7,784.3c1.6-1.4,2.9-2.3,3.7-3.5c1-1.4,1.9-3.5,0.3-4.7
	c-1.1-0.9-3.2-0.6-4.8-0.7c-0.2,0-0.5,0.8-1.2,1.8c1.2-0.4,1.6-0.7,2-0.6c0.9,0.1,2.2-0.1,2.7,0.4c0.4,0.5,0.3,2-0.1,2.6
	c-0.9,1.4-2.2,2.5-3.2,3.7c-0.5,0.6-0.9,1.4-1.3,2.2c2.8,0,5,0,7.2,0c0-0.2,0-0.5,0-0.7C563.4,784.7,562,784.5,559.7,784.3z
	 M708.2,784.4c1.3-2,2.7-3.8,3.6-5.9c0.7-1.7-0.4-3.1-2.3-3.4c-1.5-0.3-3.1-0.3-3.8,1.5c0.6,0.2,1,0,1.5,0c0.9,0.1,2.2-0.1,2.7,0.5
	c0.4,0.5,0.3,1.9-0.2,2.6c-0.8,1.3-2,2.4-3,3.6c-0.6,0.7-1,1.4-1.7,2.5c2.9,0,5.1,0,7.3,0c0-0.3,0.1-0.5,0.1-0.8
	C710.9,784.7,709.5,784.5,708.2,784.4z M854.9,784.3c1.1-0.9,2-1.5,2.6-2.3c0.8-1.2,1.6-2.5,1.9-3.9c0.4-1.8-1.1-3.1-3.2-3.2
	c-1.9-0.1-2.6,0.5-2.7,2c0.5-0.2,1-0.4,1.4-0.4c0.9,0,2.2,0,2.5,0.4c0.4,0.6,0.3,2-0.1,2.7c-0.9,1.4-2.1,2.5-3.2,3.7
	c-0.5,0.6-0.9,1.4-1.4,2.3c2.8,0,5,0,7.2,0c0-0.2,0-0.5,0-0.7C858.4,784.7,857,784.5,854.9,784.3z M925.8,776.9
	c0.4-0.1,0.7-0.4,1.1-0.3c1,0.1,2.3,0,2.9,0.5c0.4,0.3,0.1,1.9-0.3,2.7c-0.8,1.3-2.1,2.3-3,3.5c-0.5,0.7-0.9,1.4-1.5,2.4
	c2.8,0,4.9,0,7.1,0c0-0.3,0.1-0.5,0.1-0.8c-1.5-0.2-2.9-0.3-4.6-0.5c0.8-0.8,1.5-1.4,2-2.1c0.8-1.3,1.8-2.6,2.1-4.1
	c0.4-1.7-0.7-2.9-2.4-3.1C927.8,774.9,926.2,774.7,925.8,776.9z M-286.7,332.9c0.1-0.3,0.2-0.7,0.3-1c-1.8-1.7-4.2-0.3-6.4-0.8
	c0,3.9,0,7.6,0,11.7c2.2-1.8,0.5-4.1,1.6-5.7c1.3-0.2,2.6-0.4,4-0.5c0-0.2,0-0.5-0.1-0.7c-1.4-0.1-2.7-0.3-4.2-0.4
	c0.1-0.9,0.1-1.7,0.2-2.6C-289.7,332.9-288.2,332.9-286.7,332.9z M-367.4,475.6c1,1.6,3.4,2.1,5.1,1.1c1.9-1.1,2-3.4,0.6-5.9
	c0.3-1.2,0.7-3,0.2-3.5c-1-0.8-2.6-1-4-1.1c-0.5-0.1-1.2,0.7-1.8,1.1c1.9,0.3,3.2,0.6,4.6,0.8c-0.7,1-1.4,2-1.7,2.6
	c0.7,1.1,2.1,2.4,2,3.3C-363,477.3-365.7,475.1-367.4,475.6z M-333.3,475.5c1.3-1.9,2.6-3.5,3.5-5.4c0.9-1.9-0.1-3.5-2.1-4
	c-1.9-0.5-3.4,0.2-3.6,1.8c0.5-0.1,1-0.4,1.4-0.3c0.9,0.1,2.2,0.1,2.6,0.6c0.4,0.6,0,1.9-0.4,2.6c-0.8,1.3-2,2.4-3,3.6
	c-0.5,0.6-0.8,1.4-1.3,2.2c2.7,0,4.8,0,6.9,0c0-0.2,0-0.5,0.1-0.7C-330.6,475.9-332,475.7-333.3,475.5z M-333.3,385.6
	c-0.1-0.2-0.3-0.4-0.4-0.6c0.8-0.6,1.7-1.1,2.2-1.8c0.8-1.1,1.5-2.4,1.9-3.7c0.4-1.6-0.4-2.8-2.1-3.2c-1.5-0.3-3.2-0.5-4.6,1.8
	c1.3-0.3,1.9-0.5,2.5-0.5c0.8,0,2,0,2.2,0.5c0.4,0.6,0.3,1.8-0.1,2.5c-0.8,1.3-1.9,2.4-2.9,3.6c-0.6,0.7-1.1,1.4-1.9,2.5
	c2.9,0,5,0,7.2,0c0-0.2,0-0.4,0.1-0.7c-0.7-0.1-1.3-0.2-2-0.3C-331.9,385.7-332.6,385.6-333.3,385.6z M-353.3,761.9
	c0.6-0.1,1-0.3,1.5-0.2c0.9,0.1,2.3,0,2.7,0.5c0.4,0.5,0.1,1.9-0.3,2.7c-0.7,1.3-1.9,2.3-2.8,3.4c-0.5,0.7-1,1.4-1.7,2.4
	c2.7,0,4.9,0,7,0c0-0.2,0-0.5,0.1-0.7c-1.4-0.1-2.8-0.3-4.7-0.5c1-0.9,1.8-1.5,2.2-2.2c0.8-1.2,1.7-2.5,2-3.9
	c0.4-1.7-0.5-2.8-2.3-3.2C-351.4,759.8-352.7,760.3-353.3,761.9z M-203,342.4c2.5-0.5,6.4-8.4,5.7-11c-5.5-0.6-6.3-0.4-6.4,1.7
	c1.7,0,3.4,0,5.3,0C-200,336.2-201.4,339.2-203,342.4z M-285.2,342.2c1.1,0,2.4,0,3.5,0c-1.5-3.7-1.3-7.3,0.2-10.9
	c-1.4,0-2.6,0-4.1,0C-283.5,334.9-283.5,338.4-285.2,342.2z M-26.6,785.7c-0.5-1.5-1.1-2.7-1.3-3.9c-0.2-2.2-0.1-4.4-0.1-6.9
	c-1.5,0.8-2.5,1.4-3.9,2.2c3.2,0.3,2.4,2.4,2.4,4c0,1.8,0.5,3.8-2,4.6C-29.6,785.7-27.8,785.7-26.6,785.7z M874.9,774.7
	c-1.6,1-2.5,1.6-3.5,2.3c3.9,1.8,1.2,5,2.2,7.2c-0.9,0.4-1.5,0.8-2.1,1.1c0.1,0.1,0.1,0.2,0.2,0.4c1.8,0,3.5,0,4.6,0
	c-0.4-1.4-1.1-2.7-1.2-4C874.8,779.6,874.9,777.4,874.9,774.7z M121.9,785.7c-4.3-3-1-7.4-2.7-10.6c-1.1,0.7-2.1,1.3-2.9,1.8
	c0.7,0.6,1.9,1.2,1.8,1.7c-0.3,2.4,1.8,5.5-1.9,7.1C117.9,785.7,119.7,785.7,121.9,785.7z M-147.6,785.7c-0.5-1.5-1.1-2.7-1.2-3.9
	c-0.2-2.2-0.1-4.4-0.1-6.9c-1.5,0.9-2.5,1.4-3.9,2.3c3.2,0.3,2.4,2.4,2.4,4c0.1,1.8,0.4,3.7-2,4.6
	C-150.6,785.7-148.8,785.7-147.6,785.7z M723.8,777c4,1.7,1.2,5,2.3,7.2c-0.9,0.5-1.5,0.8-2.2,1.1c0.1,0.1,0.1,0.2,0.2,0.4
	c1.8,0,3.5,0,5.3,0c-2.3-0.8-2-2.5-2-4.2c0-2.1,0-4.2,0-6.7C725.9,775.7,724.9,776.3,723.8,777z M-178.8,776.9
	c2.9,1.9,2.9,6.7-0.2,8.7c2,0,3.8,0,5.5,0c-2.1-0.6-2-2.1-2-3.6c0.1-2.3,0-4.5,0-7.1C-176.9,775.8-177.9,776.3-178.8,776.9z
	 M148,785.7c0.1-0.2,0.2-0.4,0.3-0.6c-2.3-0.1-2.3-1.5-2.2-3.1c0.1-2.3,0-4.5,0-7.4c-1,0.8-1.4,1.2-1.9,1.5
	c-0.5,0.3-1.1,0.5-1.2,0.5c0.6,1.1,1.4,1.9,1.6,2.8c0.3,1.2,0.3,2.6,0,3.7c-0.3,0.9-1.2,1.7-1.9,2.5
	C144.4,785.7,146.2,785.7,148,785.7z M269.1,785.7c-4-3.1-0.8-7.4-2.5-10.5c-1.1,0.6-2.1,1.2-2.8,1.7c0.7,0.8,1.8,1.4,1.7,2
	c-0.3,2.3,1.7,5.3-1.9,6.9C265.4,785.7,267.2,785.7,269.1,785.7z M-179.9,333.3c0.6,0.9,1.7,1.7,1.6,2.4c-0.2,2.2,1.7,5.1-1.9,6.4
	c1.8,0,3.6,0,5.4,0c-2.1-0.6-2-2-2-3.6c0.1-2.4,0-4.8,0-7.9C-178.3,331.9-179.2,332.7-179.9,333.3z M736.2,774.8
	c-1.6,1-2.5,1.5-3.3,2c0.7,0.7,1.8,1.4,1.8,2c-0.3,2.3,1.7,5.3-2.7,6.8c2.6,0,4.4,0,6.2,0c-2.3-0.5-2-2.1-2-3.6
	C736.2,779.8,736.2,777.5,736.2,774.8z M441.2,774.8c-1.5,0.9-2.5,1.5-3.2,1.9c0.7,0.8,1.8,1.6,1.7,2.2c-0.3,2.2,1.7,5.2-1.9,6.6
	c1.8,0,3.6,0,5.4,0c-2.1-0.6-2-2-2-3.6C441.3,779.8,441.2,777.5,441.2,774.8z M949.1,785.7c-2.2-0.9-1.9-2.6-1.9-4.3
	c0-2.1,0-4.1,0-6.6c-1.6,1-2.5,1.6-3.9,2.5c3.6,0.2,2.2,2.5,2.5,4.1c0.3,1.8,0.1,3.5-2,4.4C945.6,785.7,947.4,785.7,949.1,785.7z
	 M-226.6,344.6c0.3,0.1,0.6,0.3,0.9,0.4c0.6-1.5,1.3-2.9,1.9-4.4c-0.3-0.1-0.6-0.3-0.9-0.4C-226.6,341.1-226.2,343.1-226.6,344.6z"
	/>
<path class="st1" d="M-191,737.9c-3.9-1.3-7.3-2.6-10.7-3.4c-3.4-0.8-5.9,1.1-8.1,3.4c-2.1,2.1-4.5,3.5-7.5,4.1
	c-2.1,0.5-4.1,1.8-5.8,3.1c-3.7,2.9-5.1,4.1-8.9,1.6c-3-2-4-1.6-6.7,0.9c-3,2.7-5.9,5.4-8.8,8.1c-1.9,1.7-4,1.6-5.9,0.5
	c-2.4-1.5-4.8-2.2-7.6-2.4c-3.2-0.3-6.3-1.7-9.5-2.5c-1.3-0.3-2.9-0.3-4,0.2c-3.4,1.8-4.8,1.8-7.7-0.6c-0.1-0.1-0.1-0.1-0.2-0.1
	c-3.4-3.7-7.2-4.2-11.5-1.7c-0.7,0.4-1.6,0.4-3,0.7c3.7-4,9.7-4.6,13.3-1.8c0.7,0.6,1.4,1.2,2.1,1.8c1.4,1.5,2.9,1.8,4.9,0.9
	c3-1.3,6.1-1.1,9.2,0.2c1.4,0.6,3.1,0.8,4.6,0.6c3-0.2,5.6,0.6,8.2,2.2c5.6,3.4,3.9,2.9,8.5-0.9c3.1-2.5,5.9-5.6,8.8-8.5
	c1.5-1.4,3.1-1.3,5.3,0.4c3.8,3.1,4.3,2.5,7.3-0.1c1.8-1.6,3.9-3.2,6.7-3.5c3.7-0.5,6.5-3,9.2-5.4c3.8-3.2,8.3-2.6,12.3-1.2
	c5.4,1.9,6,2,9-3c1.9-3.1,4.2-6,6.7-8.7c3.8-4.2,7.6-8.4,11.8-12c3-2.6,7.1-1.9,10.7-0.8c4.1,1.2,7.4,3.8,9.5,7.7
	c1.1,2.1,3,1.6,4.7,0.5c1.6-1.1,3.3-3,4.9-2.9c1.5,0,2.9,2.2,4.4,3.3c0.9,0.7,1.8,1.5,2.9,1.9c5.7,1.8,6.9,1.4,10.6-3.6
	c3.8-5.2,6.7-10.9,10.2-16.4c1.2-1.9,2.7-3.7,4.3-5.5c3.2-3.6,6.4-7.2,9.8-10.6c0.8-0.8,2.3-1.5,3.5-1.5c4.4-0.2,8.8-0.3,13.2,0
	c2.8,0.2,5.5,1,8.1,1.9c6,2,7.4,1.6,11.2-3.1c1.8-2.2,4-3.4,6.6-3.4c2.5,0,3.9-1.3,5.6-2.8c3.5-3.4,7.1-6.7,10.9-9.8
	c0.8-0.7,2.5-0.5,3.8-0.3c1.2,0.2,2.3,1.3,3.4,1.3c1.1,0,2.5-0.8,3.1-1.7c4-6.2,7.8-12.5,11.6-18.9c1.4-2.3,3.9-3,5.7-4.5
	c2.6-2.2,4.3-2,6.9,0.3c4.2,3.7,5.9,3.4,10.2-0.1c0.7-0.6,1.3-1.5,1.7-2.4c2.1-4.5,4-9,6.2-13.5c0.5-1,1.8-1.6,2.9-2.2
	c4.1-2.6,8.2-5.1,12.8-7.9c0.9,2.1,1.8,4.2,2.5,6.3c1.5,4.1,2.9,8.3,4.2,12.5c0.6,1.8,1.7,1.9,3.1,1c2.9-1.9,5.9-3.7,8.6-5.8
	c2.2-1.7,4.4-2.5,7.1-2.3c5,0.4,9.2-1.8,13.1-4.5c2.8-2,5.5-4.3,7.9-6.7c3.6-3.6,6.9-7.4,10.4-11c0.9-0.9,2.1-1.5,3.3-1.9
	c1.3-0.5,2.7-0.9,4.1-1.1c1.1-0.2,2.5-0.4,3.4,0.1c3.7,2.1,6.9,1.7,10.2-0.8c2.7-2,3.6-1.6,5.3,1.2c1.3,2.2,2.7,4.4,4,6.5
	c0.8,1.2,1.6,1.2,2.9,0.3c4.1-2.7,6.7-6.7,9-10.8c1.9-3.4,3.9-5.3,8.1-5.1c2.1,0.1,4.5-1.2,6.5-2.3c2.4-1.3,4.5-3.1,6.8-4.6
	c0.5-0.4,1-0.9,1.6-1.2c1.5-0.8,1.6-3.9,4.4-2.6c1.6,0.8,3.3,1.3,5,1.8c0.6,0.2,1.3,0.4,1.9,0.2c4.4-1.3,8.8-2.6,13.1-4.2
	c2.6-1,4.9-2.7,7.4-3.9c3.2-1.4,6.1-3.8,9.9-3.6c4.8,0.3,9.1-1.3,13.5-2.8c3.9-1.4,7.6-2.3,11.8,0.4c3.3,2.2,7.8,2,11.4-0.2
	c3.5-2.2,6.9-3.7,11.2-3.4c1.1,0.1,2.6-0.6,3.5-1.5c3.4-3.4,6.4-7.2,10-10.4c4.5-4.1,9.2-8.1,14.3-11.6c5.5-3.8,11.4-6.9,17.2-10.1
	c1.9-1.1,4.2-1.4,6.2-2.3c1.6-0.7,3.4-1.3,4.4-2.6c2.6-3.2,6-5,9.9-6.2c1.2-0.4,2.5-1.4,3.1-2.4c2-3.1,3.5-6.4,5.5-9.4
	c3.2-4.7,7.4-8.2,13.2-9.4c1.3-0.3,2.6-1.4,3.5-2.5c1.5-1.8,3-3.8,4.1-6c1.4-2.8,3.6-4.2,6.5-4.9c0.6-0.1,1.2-0.2,1.7-0.5
	c1.7-1.2,2.7-0.4,3.9,0.8c1.7,1.9,3.5,3.7,5.6,5.9c1.8-3.7,3.6-6.8,4.8-10.2c1.4-4,4.2-6.2,7.8-8c2.3-1.1,4.3-2.8,6.2-4.4
	c2.5-2.1,3.6-2.3,6.3-0.2c0.7,0.6,1.3,1.2,2.1,1.8c1.5,1.2,2.6,1,3.6-0.8c1.5-2.7,3.2-5.2,4.8-7.8c0.3-0.5,0.7-1.1,1.2-1.2
	c3.2-0.7,6-2.5,9.7-1.4c3.3,1.1,7,1.1,10.5,1.9c1.3,0.3,2.7,0.9,3.8,1.8c5,4,8.8,8.9,12.2,14.3c0.3,0.5,2.1,0.3,3.1,0.2
	c0.5-0.1,1-0.9,1.5-1.3c3.1-2.2,3.8-2.1,5.6,1.2c1.2,2.3,2.4,4.5,3.7,6.8c0.5,0.8,1.2,1.5,2.1,2.6c1.8-2.1,3.4-4,5-5.8
	c2.6-2.9,9.2-2.6,11.2,0.7c3.3,5.6,6.2,11.3,9.2,17c1,2,1.9,4.1,3.1,5.9c0.3,0.4,1.9,0.3,2.6-0.1c1.1-0.7,1.9-1.8,2.9-2.7
	c1.7-1.5,3.3-2,5.6-0.6c2.5,1.5,4.5,0.4,6.3-2.5c1.8-2.8,3.8-5.4,5.8-8c0.5-0.6,1.5-1.1,2.4-1.1c3-0.2,4.9-1.8,6.5-4.1
	c0.8-1.1,1.6-2.3,2.4-3.5c2.4-3.6,6.3-3.5,9.9-4.3c1.6-0.3,3.1-1.1,4.7-1.2c2-0.1,4.1-0.2,5.9,0.4c2.3,0.9,4,0.9,5.8-0.9
	c0.5-0.5,0.9-1,1.4-1.4c2.4-2.3,4.3-4.6,8.6-3.3c4.3,1.3,9,0.6,13.4-1.1c6.2-2.4,12.5-4.5,18.8-6.7c0.6-0.2,1.4-0.1,2.1,0
	c3.3,0.7,6.3,1,9.3-1.7c3.2-2.8,7-5,10.7-7.2c1.4-0.8,3.4-1.2,5-1.1c2.7,0.1,4.7-1.2,6.9-2.5c2.6-1.5,5.4-3.2,8.3-3.6
	c6.7-0.9,11.6,2.8,15.4,8c1.7,2.3,3.7,3.3,6.3,4c2,0.6,3.7,2,5.5,3c0.3,0.2,0.5,0.7,0.9,0.9c5.5,3.7,6.6,9.9,8.6,15.5
	c2.1,5.8,4,11.5,8.3,16.2c1.5,1.6,2.5,1.3,3.4-0.1c2.5-3.9,4.9-7.9,7.3-11.9c1.7-2.8,3.3-5.7,5.2-8.5c0.7-1,2-1.7,3.1-2.4
	c3.3-2.2,6.6-4.3,9.9-6.4c1.7-1,3.2-1.2,4.5,0.7c1.1,1.7,2.2,3.3,3.4,4.9c1.5,1.9,2.7,1.9,4.3,0.1c2.7-3.2,5.1-6.8,8.1-9.7
	c3.7-3.5,7.7-6.8,11.9-9.6c3.1-2,7.5,0,9.3,3.2c1.3,2.3,2.8,4.5,4.3,6.7c0.8,1.2,1.7,1.3,2.7-0.1c3.8-5,7.7-10,11.5-15
	c1.2-1.5,2.7-1.6,4.2-0.8c2.6,1.4,5,1.4,7.4-0.5c2.8-2.1,5.8-3.4,9.5-2.7c1.7,0.3,2.9-0.5,4.1-2.1c2.8-3.9,6.4-7.2,11.3-8.4
	c6.1-1.5,10.4-5.6,14.3-10.2c1.9-2.2,4.1-3.2,7-3.7c2.8-0.5,5.3-2.1,7.9-3.3c0.6-0.3,1.2-0.8,1.8-0.8c4.1,0,7.4-2.1,11.1-3.3
	c3.9-1.3,8.1-2.1,12.3-2.8c4.3-0.7,8.2,0.3,11.5,3.3c0.8,0.7,3.2,0.8,4,0.2c3.4-2.9,7.5-3.7,11.5-4.7c4.4-1.1,8.8-2.7,13.1-4.1
	c2.8-1,5.6-2.1,8.3-3.3c1.4-0.6,2.6-1.6,4-2.3c4.7-2.4,9.4-4.8,14.2-7c3.6-1.7,7.3-3.1,10.2-6c1.5-1.5,3.5-2.1,5.7-1.8
	c4.5,0.6,8.8-0.4,12.6-2.9c1.6-1,2.9-2.5,4.3-3.7c0.8-0.7,1.8-1.2,2.9-1.9c1.6,2.5,3,4.8,4.5,7.1c2.4,3.8,2.9,3.8,5.5,0.3
	c1-1.3,1.8-2.8,2.8-4.1c0.9-1.3,1.8-2.8,3.9-1.9c-1.6,2.1-3.2,4.2-4.7,6.4c-1.5,2.1-2.9,4.2-4.5,6.6c-1-1.2-1.7-1.9-2.2-2.8
	c-1.6-2.5-3-5-4.6-7.4c-0.8-1.2-1.9-1.5-2.9-0.3c-3.2,3.7-7.7,5.2-12.1,6.5c-1.7,0.5-3.8-0.2-5.7,0c-1.2,0.1-2.4,0.4-3.4,1
	c-3.1,1.8-6,3.9-9.1,5.5c-4.5,2.2-9.6,3.5-13.6,6.3c-5.4,3.8-11.5,5.8-17.4,8.4c-4.6,2.1-9.4,3-14.3,3.7c-2.4,0.3-4.9,2-6.9,3.6
	c-3.3,2.8-4.3,2.9-7.5-0.1c-1.8-1.7-3.8-2.9-6.4-2.8c-3.6,0.3-7.2,0-10.7,0.7c-2.4,0.5-4.5,2.2-6.9,3.3c-1.3,0.6-2.8,0.8-4.2,1.2
	c-2.7,0.8-5.4,1.5-8,2.4c-3.3,1.1-6.8,2.2-9.9,3.8c-2.1,1.1-4.2,2.8-5.6,4.8c-2.2,3-5.1,4.7-8.2,6.3c-2.2,1.1-4.4,2.2-6.7,2.9
	c-3.1,0.9-5.2,2.9-6.9,5.5c-2,3-4.2,4.6-8.1,3.7c-3.4-0.8-6,1.6-8.4,3.7c-1.7,1.5-3,1.6-4.9,0.4c-2.6-1.7-4.2-1.3-6.1,1.1
	c-3.5,4.6-7.1,9.2-10.6,13.8c-2.3,2.9-3.1,2.9-4.9-0.3c-1.5-2.7-3.1-5.3-4.6-8c-0.3-0.5-0.8-1.1-1.2-1.2c-2.9-0.2-5.6-0.8-8.5,1
	c-7.2,4.5-11.6,11.5-17.1,17.5c-0.2,0.2-0.3,0.4-0.5,0.6c-2.4,2.7-2.8,2.7-5-0.2c-1.1-1.5-2.1-3-3.2-4.5c-1.2-1.7-2.7-2.4-4.6-1.1
	c-3.5,2.3-7.2,4.2-10.3,6.9c-2.3,2.1-3.9,5.1-5.6,7.9c-3.2,5.2-6.2,10.4-9.3,15.6c-0.9,1.6-1.8,1.4-2.9,0.1
	c-4-5.2-7.6-10.6-9.4-17.1c-1.1-4-2.7-7.8-4.3-11.7c-0.4-1.1-1.6-1.9-2.4-2.8c-3.1-3.2-6.6-5.7-11.2-7c-2-0.5-3.7-2.8-5-4.6
	c-3.1-4.4-8.5-6.3-13.8-5.6c-4.3,0.6-7.3,3.4-10.8,5.3c-0.8,0.5-1.8,1-2.7,0.9c-3.8-0.4-6.8,1.2-9.7,3.4c-1.7,1.3-3.3,2.8-5.2,3.8
	c-2.6,1.3-4.9,3.5-8.5,2.2c-1.9-0.7-4.4,0.2-6.5,0.7c-3.7,0.9-7.3,2-10.9,3.2c-1.3,0.4-2.5,1.4-3.8,1.8c-2.9,0.9-5.9,1.8-8.9,2.4
	c-1.7,0.3-3.6,0.5-5.2,0c-5.8-1.9-5.8-0.7-9.9,3.2c-1.6,1.6-2.9,2.7-5.3,2.2c-6.2-1.3-12.2,0.4-18.3,1.5c-1.2,0.2-2.2,1.6-3.1,2.6
	c-0.8,0.8-1.3,1.9-2,2.9c-2.3,3.5-5.7,5.1-9.5,6.2c-2.8,0.8-3.2,3.6-4.7,5.5c-1.1,1.4-1.9,2.9-2.7,4.5c-1,1.9-2.4,2-4.2,1.2
	c-4-1.8-5.2-1.5-8.1,1.6c-1.1,1.2-2.5,2.1-4.2,3.6c-1.3-2.6-2.5-4.9-3.7-7.2c-3-5.7-6-11.4-9.1-17.1c-2.6-4.8-8.1-5.1-11.4-0.7
	c-1.1,1.5-2.3,2.8-3.5,4.2c-1.1,1.4-2,1.4-3-0.3c-1.5-2.8-3.1-5.5-4.7-8.2c-1.1-1.9-2.4-2.2-4.3-1c-4.6,2.8-4.6,2.6-7.7-2
	c-2.5-3.7-4.8-7.6-8.7-10.1c-1.8-1.2-3.9-2.2-5.9-2.8c-3.5-1.1-7-2.2-10.6-2.5c-3.6-0.3-7.2,0.3-9.3,4.2c-1.4,2.6-3.3,5-4.9,7.5
	c-0.8,1.2-1.6,1.5-2.8,0.5c-1.2-1-2.4-2.1-3.8-2.7c-1.1-0.5-2.8-0.8-3.6-0.3c-3.8,2.3-7.5,4.8-11,7.6c-1.5,1.2-2.6,3.1-3.5,4.9
	c-1.7,3.2-3,6.6-4.5,9.9c-0.8,1.7-1.9,1.9-3.1,0.5c-1.1-1.3-2-2.8-3.2-4.1c-3-3.2-7.8-2.9-10.4,0.7c-1.6,2.2-3.4,4.4-4.5,6.9
	c-1.5,3.3-4.6,3.4-7.3,4.5c-5.4,2.3-9.4,5.9-11.9,11.3c-1.3,2.8-2.8,5.5-4.6,7.9c-0.8,1-2.6,1.6-4,1.8c-2.8,0.5-4.7,2-6.8,3.9
	c-2.2,2-4.7,3.6-7.4,4.9c-4.9,2.5-10.1,4.5-15,7c-3.8,2-7.6,4.2-10.9,7c-5.8,5-11.2,10.4-16.6,15.7c-1.7,1.7-3.2,3.6-5,5.2
	c-0.8,0.7-2.2,1.2-3.4,1.1c-3.5-0.2-6.6,0.3-9.6,2.4c-1.3,0.9-3.3,0.9-4.9,1.4c-3.9,1.3-7.4,0-10.9-1.7c-1.1-0.5-2.7-0.5-3.9-0.3
	c-3.3,0.7-6.6,1.7-9.9,2.4c-1.4,0.3-3,0.5-4.4,0.5c-4.8-0.2-8.7,1.8-12.8,4.1c-3.4,2-7.2,3.4-10.8,4.9c-2.4,1-4.8,2-7.3,2.4
	c-2.5,0.4-5.3,0.6-7.8,0c-2.6-0.6-4.6-0.5-6.7,1.3c-2.8,2.3-5.8,4.4-8.7,6.6c-2.3,1.7-4.9,1.9-7.6,1.6c-2.3-0.2-3.8,0.8-4.9,2.7
	c-1.2,1.9-2.3,3.9-3.7,5.6c-2.8,3.4-5.8,6.7-9.2,10.5c-2.1-3.3-3.8-5.9-5.3-8.6c-2.1-3.6-2.6-3.8-6.2-1.6c-0.7,0.4-1.4,1.1-2.1,1.3
	c-1.1,0.3-2.5,0.7-3.3,0.3c-3.3-1.8-6.8-1.5-10.2-1c-1,0.2-2,0.8-2.7,1.6c-4.5,4.6-8.8,9.5-13.5,13.9c-5.6,5.2-11.6,9.6-20,8.9
	c-3.5-0.3-5.9,2.4-8.6,4.1c-2.7,1.8-5.4,3.6-8.1,5.2c-0.4,0.2-1.7-0.3-1.9-0.7c-1.5-3.9-2.8-7.8-4.1-11.7c-0.6-1.9-1.2-3.8-1.9-5.6
	c-0.5-1.4-1.4-1.7-2.7-1c-3.6,2.1-7.3,3.9-10.6,6.4c-1.7,1.2-2.7,3.5-3.7,5.5c-1.7,3.3-2.9,6.9-4.6,10.2c-0.7,1.3-2.3,2.4-3.6,3.3
	c-1.5,1-3.2,1.7-4.9,2.6c-1.8-1.4-3.7-2.9-5.7-4.3c-0.6-0.4-1.7-1-2.2-0.8c-2.4,1.4-5.4,2.5-6.9,4.6c-4.9,7.2-9.2,14.8-13.8,22.2
	c-0.2,0.3-0.4,0.5-0.8,1.1c-1.3-0.7-2.7-1.3-4-2.1c-2.1-1.3-3.7-1.2-5.5,0.5c-3.7,3.4-7.2,6.9-11.1,9.9c-1.8,1.4-4.5,1.6-6.7,2.4
	c-1.2,0.5-2.7,1-3.5,2c-5,6-6.3,6.2-13.8,4c-3.9-1.2-8.1-1.6-12.1-2.2c-1.6-0.2-3.3,0.1-5-0.1c-2.9-0.2-5.2,0.8-7.1,2.9
	c-2.6,3-5.1,6.1-7.9,8.9c-4.7,4.8-7.2,11-10.7,16.7c-2,3.4-5,6.2-7.5,9.2c-0.3,0.4-1,0.6-1.6,0.6c-3.8,0.1-7.5,0.2-10.6-2.9
	c-2.8-2.8-3.5-2.6-6.9-0.3c-0.7,0.5-1.4,0.9-2.1,1.3c-1.4,0.8-2.6,0.9-3.7-0.6c-1.5-2.1-2.9-4.3-4.9-5.9c-3.4-2.8-7.5-3.5-11.8-2.6
	c-4.1,0.8-6.6,3.5-9.1,6.5c-2.9,3.5-6.1,6.9-8.9,10.4C-186.5,731.5-188.9,735-191,737.9z"/>
<path d="M-361,338.8c-1.6,0-3.2-0.1-4.7,0c-1.5,0.1-2.1-0.5-2.1-2c0-1.5,0.7-1.8,2-1.7c3.2,0.1,6.5,0.1,9.7,0c1.4,0,1.9,0.4,1.9,1.9
	c0,1.4-0.5,2-1.9,1.9C-357.7,338.7-359.3,338.8-361,338.8z"/>
<path d="M-337,334.2c0,2.7,0,5.4,0,8.1c-0.2,0.1-0.3,0.1-0.5,0.2c-0.3-0.4-0.8-0.7-0.8-1.1c-0.1-3-0.1-6,0-9c0-0.4,0.8-1.2,1.1-1.2
	c0.6,0.1,1.4,0.5,1.7,1.1c1.1,2,2.1,4.1,3.5,6.1c0.1-2.4,0.3-4.9,0.4-7.3c0.3,0,0.6,0.1,0.9,0.1c0,3.6,0,7.3,0,11.1
	c-2.6,0.4-2.4-2.1-3.2-3.4c-0.9-1.6-1.7-3.2-2.5-4.8C-336.6,334.1-336.8,334.1-337,334.2z"/>
<path d="M-207.1,336.3c1.8,2.2,1.9,4.2,0.5,5.4c-1.3,1.1-4.1,1.1-5.3,0c-1.4-1.3-1.3-3,0.4-5.4c-1.3-1.5-1.5-3.5,0-4.5
	c1.1-0.7,3.4-0.8,4.5-0.1C-205.5,332.8-205.4,334.8-207.1,336.3z M-209.8,336c-0.8,1.5-1.7,2.4-1.5,3c0.2,0.9,1.3,1.6,2,2.3
	c0.7-0.7,2-1.4,1.9-1.9C-207.7,338.4-208.6,337.6-209.8,336z M-209.9,331.5c-0.3,1.5-0.5,2.5-0.7,3.5c0.9,0.2,2.2,0.8,2.5,0.5
	C-206.6,333.9-208.1,333-209.9,331.5z"/>
<path d="M-246.9,335.6c0.1,2.2,0.7,4,0.1,5.3c-0.4,0.9-2.3,1.5-3.6,1.5c-2.7,0-3.9-2.6-2.6-5c0.3-0.5,0.5-1.3,0.3-1.8
	c-0.8-1.7-0.7-3.4,0.8-4.1c1.2-0.6,3.3-0.5,4.3,0.2C-246,332.9-246,334.8-246.9,335.6z M-250.3,341.7c0.3,0,0.6,0,1,0
	c0.5-0.8,1.6-1.8,1.4-2.3c-0.4-1-1.5-1.6-2.4-2.4c-0.5,0.7-1.6,1.5-1.5,2.1C-251.7,340-250.8,340.9-250.3,341.7z M-250.4,331.4
	c-0.3,1.5-0.7,2.6-0.5,3.5c0.1,0.3,2.1,0.8,2.4,0.5C-247.1,333.8-248.6,333-250.4,331.4z"/>
<path d="M-10.2,786c-4,0-5.2-2.1-3.7-5c0.3-0.5-0.1-1.4-0.1-2.1c0.1-1.1,0.2-3,0.7-3.2c1.4-0.4,3.2-0.4,4.6,0
	c0.5,0.1,0.5,2.1,0.6,3.2c0.1,0.7-0.1,1.4-0.1,2.1c0.1,1.1,0.7,2.5,0.3,3.4C-8.4,785.3-9.8,785.8-10.2,786z M-8,783
	c-1.7-1-2.6-1.7-3.6-1.9c-0.3-0.1-1.5,1.4-1.4,1.8c0.3,0.8,1.2,1.7,2,1.9C-10.3,784.9-9.5,784-8,783z M-8.5,777.5
	c-1.2-0.7-1.9-1.4-2.6-1.4c-0.6,0-1.2,0.9-1.7,1.4c0.7,0.6,1.4,1.4,2.2,1.7C-10.3,779.4-9.6,778.4-8.5,777.5z"/>
<path d="M-311.7,333.6c-1.1-0.2-2.2-0.7-3.3-0.6c-0.7,0-1.4,0.8-2.2,1.2c0.6,0.6,1.1,1.3,1.8,1.7c0.6,0.4,1.6,0.2,2.1,0.6
	c0.9,0.6,2,1.5,2.1,2.3c0.1,1-0.7,2.9-1.4,3c-1.8,0.5-3.8,0.2-5.7,0.1c-0.3,0-0.6-0.9-1.1-1.8c1.8,0.5,3,1.1,4.2,1.1
	c0.9,0,1.7-0.9,2.5-1.5c-0.6-0.7-1.2-1.5-2-2.1c-0.5-0.4-1.5-0.1-1.9-0.5c-0.9-0.8-2.1-1.8-2.3-2.8c-0.2-1.5,0.7-2.8,2.5-3.2
	C-313.4,330.4-311.5,331.5-311.7,333.6z"/>
<path d="M-158.7,774.9c2.7,0,3.9,1.8,2.8,4.3c-0.2,0.6-0.2,1.6,0.2,2.1c1.1,1.5,0.9,2.9-0.4,4c-1.6,1.3-3.5,1.3-5.1,0.1
	c-1.4-1-1.4-2.5-0.6-4c0.3-0.6,0.5-1.5,0.2-2.1C-162.5,776.7-161.4,774.9-158.7,774.9z M-155.6,783.2c-1.7-1-2.6-1.8-3.6-2.1
	c-0.3-0.1-1.5,1.4-1.4,1.8c0.3,0.8,1.2,1.7,2,1.9C-158,784.9-157.2,784-155.6,783.2z M-158,779.9c0.5-1.1,1.2-2,1-2.4
	c-0.3-0.6-1.2-1.3-1.9-1.3c-0.5,0-1,1-1.5,1.5C-159.8,778.3-159.1,779-158,779.9z"/>
<path d="M-271.6,331.3c0,3.7,0,7.3,0,11.5c-3.7-1.9-3.3-6.3-6.3-8.9c0,3.1,0,5.8,0,8.5c-0.3,0-0.6,0-0.9,0c0-3.6,0-7.2,0-10.9
	c2.6-1.2,2.3,1.5,3.1,2.7c0.9,1.4,1.6,2.9,3,4.3c0-2.4,0-4.8,0-7.2C-272.3,331.3-272,331.3-271.6,331.3z"/>
<path d="M-362.5,767.3c-4,0.1-5.4-0.7-5.3-3.4c0-1.1,0.9-2.7,1.8-3.2c1-0.5,2.9-0.4,3.9,0.3c2,1.4,1.8,3.9,1.2,6
	c-0.5,1.5-1.7,2.9-3,3.9c-0.6,0.5-1.9,0.1-3-0.3C-365.2,769.7-362.9,770.1-362.5,767.3z M-364.1,766.5c0.9-1.4,1.9-2.2,1.8-2.7
	c-0.3-0.9-1.3-1.6-2-2.4c-0.7,0.7-1.9,1.4-1.9,2.1C-366.2,764.3-365.1,765.1-364.1,766.5z"/>
<path d="M-238.2,332.1c-1.9,1-3.2,1.7-4.6,2.4c0.1,0.3,0.2,0.6,0.3,0.9c0.5,0,1,0,1.6,0c2.2-0.1,3.5,0.8,3.6,3.1
	c0.2,2.3-1,3.8-3.1,4c-2.2,0.2-3.5-0.8-3.9-3.2c-0.6-2.7-0.1-5.2,1.8-7.2c0.8-0.8,2.4-0.9,3.6-1.1
	C-238.7,331-238.3,331.9-238.2,332.1z M-237.8,338.6c-1.6-1-2.4-1.8-3.4-2c-0.5-0.1-1.7,1-1.7,1.6c-0.2,1.5,0.4,3,2.2,2.9
	C-239.9,341.1-239.2,339.9-237.8,338.6z"/>
<path d="M-349.4,476.2c1.7-0.6,4.1-0.1,4.3-2c-1.8-1-3.6-1.6-4.6-2.8c-1.4-1.7-0.4-4.1,1.5-5c2-0.9,4,0,4.8,2.2
	c0.8,2.3,0.1,6.1-1.4,7.5C-346.2,477.4-347.8,477.5-349.4,476.2z M-346.4,472.5c0.9-1.4,1.9-2.2,1.8-2.7c-0.3-0.9-1.3-1.6-2-2.4
	c-0.7,0.7-1.9,1.4-1.9,2.1C-348.5,470.3-347.5,471.1-346.4,472.5z"/>
<path d="M-235.8,337c0.3-1.4,0.3-2.9,1-4c0.5-0.9,1.8-2,2.7-1.9c1,0.1,2.5,1.1,2.8,2c0.6,1.9,0.6,4,0.6,6.1
	c-0.1,2.1-1.2,3.4-3.5,3.3c-2.2-0.1-2.9-1.6-3.2-3.4c-0.1-0.7-0.1-1.3-0.1-2C-235.6,337.1-235.7,337.1-235.8,337z M-234.1,336.8
	c0.1,0.9-0.1,1.8,0.2,2.5c0.4,0.8,1.2,1.3,1.8,2c0.6-0.6,1.4-1.1,1.7-1.8c0.3-0.8,0.4-1.8,0.3-2.7c-0.1-1.6,0.4-3.8-2-3.8
	C-234.5,333-233.8,335.3-234.1,336.8z"/>
<path d="M-349.2,419.4c1.9-0.6,4-0.4,4.4-3.5c-0.8,0-1.6,0-2.3,0c-1.7-0.1-3.2-1-3-2.6c0.2-1.5,1.1-3.3,2.3-4.3
	c1.3-1.1,2.8-0.1,3.7,1.3c1.7,2.4,1.4,7-0.6,8.8C-346.1,420.2-347.6,420.7-349.2,419.4z M-346.4,415.5c0.9-1.4,1.9-2.2,1.8-2.7
	c-0.3-0.9-1.3-1.6-2-2.4c-0.7,0.7-1.9,1.4-1.9,2.1C-348.5,413.3-347.5,414.1-346.4,415.5z"/>
<path d="M-316,415.2c-0.4,1.8-0.6,3.3-0.9,4.8c-0.3,0-0.6,0-0.9-0.1c-0.3-3.6-0.4-7.3,0.1-10.9c0.3,0,0.5,0,0.8-0.1
	c0.2,1.5,0.4,3.1,0.6,5.2c1.9-2,3.6-3.7,5.2-5.4c0.3,0.3,0.6,0.6,0.9,0.9c-1.3,1.5-2.6,3-4,4.6c1.4,1.9,2.7,3.7,4.3,5.9
	C-313.3,419.9-313.8,416.9-316,415.2z"/>
<path d="M-361.5,409.8c-1.7,0.9-3.2,1.7-4.6,2.4c0.1,0.2,0.2,0.5,0.4,0.7c0.6,0,1.3,0,1.9,0c2,0,3.1,1,3.3,3c0.2,2-0.5,3.7-2.7,4.1
	c-2,0.4-3.4-0.3-4.2-2.2c-1.1-2.9-0.1-6.7,2.4-8.5c0.7-0.5,1.8-0.6,2.8-0.6C-361.9,408.7-361.6,409.6-361.5,409.8z M-367.3,416.1
	c1.6,1.3,2.5,2.1,3.4,2.8c0.6-0.8,1.8-1.7,1.7-2.4c0-0.8-1.2-1.8-2-2.1C-364.8,414.2-365.7,415.2-367.3,416.1z"/>
<path d="M-221.2,341.2c2.5,0.1,4.6-0.1,4.7-3.2c-0.6,0.1-1.3,0.2-1.9,0.2c-1.9,0-3.3-0.8-3.5-2.8c-0.1-1.9,0.3-3.7,2.5-4.3
	c1.9-0.5,3.7,0,4,2.1c0.3,2.3,0.4,4.8-0.2,6.9C-216.3,342.6-219.4,343.2-221.2,341.2z M-218.1,337.9c1-1.3,2-2.2,1.8-2.5
	c-0.4-1-1.4-1.7-2.1-2.5c-0.7,0.7-1.8,1.4-1.8,2.1C-220.2,335.7-219.2,336.5-218.1,337.9z"/>
<path d="M-366.8,386.3c3.5-1.2,3.5-1.2,4.1-2.7c-1.4-0.4-3-0.6-4.2-1.3c-0.6-0.4-1.1-1.9-0.8-2.7c0.4-1.2,1.2-2.7,2.2-3.2
	c0.9-0.4,2.7-0.1,3.6,0.6c2.4,2,1.4,8.3-1.5,9.6c-1,0.4-2.2,0.2-3.4,0.3C-366.8,386.8-366.8,386.6-366.8,386.3z M-361.2,380
	c-1.5-1.2-2.3-2.2-3.2-2.4c-0.5-0.1-1.9,1.5-1.8,2c0.3,0.9,1.3,1.9,2.2,2.3C-363.6,382.1-362.6,381-361.2,380z"/>
<path d="M-349.3,386.1c1.7-0.5,4,0,4.3-2.7c-4.2-0.2-5.4-0.9-5.2-3.7c0.1-1.1,1-2.6,1.9-3.1c1-0.5,2.8-0.4,3.7,0.3
	c2.1,1.4,1.7,3.8,1.4,5.9c-0.3,2-1.2,3.5-3.2,4.1c-0.9,0.3-1.9,0-2.9,0C-349.2,386.7-349.2,386.4-349.3,386.1z M-347.1,382.3
	c0.3,0,0.7,0,1,0c0.5-0.8,1.5-1.7,1.4-2.2c-0.3-1-1.3-1.8-2-2.7c-0.7,0.7-1.9,1.4-1.9,2.1C-348.5,380.5-347.6,381.4-347.1,382.3z"/>
<path d="M-359.2,414c0.5-1.1,1-2.9,1.9-4.4c0.9-1.5,2.7-1.3,3.9,0c1.7,1.9,2.3,6.8,0.8,8.9c-0.6,0.8-1.9,1.6-2.8,1.5
	c-1-0.1-2.3-0.9-2.9-1.8C-358.9,417.3-358.9,415.9-359.2,414z M-358,414.2c0.9,2,0,4.7,2.7,4.6c2.4-0.1,1.8-2.6,1.9-4.2
	c0-1.6,0.4-4-2.1-3.9C-356.4,410.7-357.2,412.9-358,414.2z"/>
<path d="M280.5,784.9c2.6-0.3,4.7-0.1,5.1-2.8c-4.2,0.2-5.6-0.8-5.4-3.8c0.2-2.7,3.2-4.3,5.5-2.8c1.8,1.1,2.4,4.7,1.2,7.6
	c-0.9,2.2-2.9,3.3-5.2,2.9C281.6,785.9,281.4,785.6,280.5,784.9z M287.1,779.3c-1.5-1.4-2.4-2.2-3.2-3c-0.7,0.7-1.8,1.4-1.9,2.2
	c-0.2,1.2,0.3,2.6,2,2.3C284.8,780.7,285.5,780.1,287.1,779.3z"/>
<path d="M133.6,785.4c1.8-0.9,3.3-1.7,4.8-2.4c-0.1-0.3-0.2-0.6-0.3-0.9c-0.4,0-0.9,0-1.3,0c-2,0.1-3.6-0.2-3.9-2.6
	c-0.3-2.5,0.6-4.1,2.7-4.5c1.9-0.4,3.7,0.8,4.2,2.9c1.2,4.4-1.4,8.4-5.1,8.1C134.4,786,134,785.6,133.6,785.4z M139.6,779.1
	c-1.6-1.3-2.5-2-3.3-2.8c-0.6,0.8-1.7,1.5-1.8,2.4c-0.2,1.3,0.5,2.5,2.2,2.2C137.4,780.7,138.1,780,139.6,779.1z"/>
<path d="M-310.7,477.3c-0.8-0.6-1.7-1.2-2.4-1.9c-0.8-0.8-1.6-1.6-2.8-2.9c-0.4,1.9-0.7,3.2-1,4.6c-0.3,0-0.5-0.1-0.8-0.1
	c-0.7-3.5-0.3-7-0.2-10.4c0.3,0,0.6-0.1,1-0.1c0.2,1.4,0.4,2.7,0.6,4.4c1.8-1.7,3.5-3.2,5.2-4.7c0.2,0.2,0.4,0.5,0.7,0.7
	c-0.8,0.9-1.5,1.9-2.4,2.6c-1.6,1.2-1.3,2.5-0.2,3.8c0.9,1.1,1.9,2.3,2.9,3.4C-310.4,476.8-310.6,477-310.7,477.3z"/>
<path d="M-316.1,383c-0.3,1.4-0.6,2.7-0.8,4c-0.3,0-0.5-0.1-0.8-0.1c-0.7-3.5-0.3-6.9-0.2-10.4c0.3,0,0.7-0.1,1-0.1
	c0.2,1.3,0.4,2.7,0.6,4.4c1.8-1.7,3.4-3.2,5.1-4.7c0.2,0.2,0.5,0.4,0.7,0.7c-0.8,0.9-1.5,2-2.4,2.8c-1.4,1.2-1.6,2.3-0.1,3.7
	c1.1,1,2,2.2,3.3,3.7C-313.2,387.1-313.5,383.7-316.1,383z"/>
<path d="M-320.7,342.6c-0.4-0.6-1.1-1.2-1.3-1.9c-0.5-1.3-1.2-1.7-2.6-1.7c-1.4,0-2.1,0.5-2.5,1.8c-0.2,0.7-0.8,1.2-1.2,1.8
	c-0.2-0.1-0.5-0.3-0.7-0.4c1.1-3.4,2.2-6.8,3.4-10.2c0.1-0.3,0.8-0.8,1.1-0.7c0.5,0.1,1.2,0.4,1.3,0.8c1.2,3.3,2.2,6.7,3.3,10.1
	C-320.2,342.3-320.4,342.4-320.7,342.6z M-324.3,334c-0.2,0-0.4,0-0.6,0c-0.4,1.1-0.8,2.3-1.3,3.6c1.2,0,2.1,0,3.2,0
	C-323.4,336.2-323.9,335.1-324.3,334z"/>
<path d="M-320,414.7c-0.4,4-1.4,5.6-3.9,5.5c-2.4,0-3.6-1.7-3.5-5.6c0-1.5,0.4-3.1,1.2-4.4c1.2-2.2,3.5-2.2,4.8,0.1
	C-320.6,411.6-320.4,413.2-320,414.7z M-321.4,415.5c-0.8-2.3,0.3-5-2.4-4.9c-2.4,0-1.9,2.5-1.9,4.1c0,1.6-0.4,4,2.1,3.9
	C-322.9,418.7-322.1,416.5-321.4,415.5z"/>
<path d="M295.5,776.3c-2-0.1-4,0-4.5,2.7c2.5-0.4,4.9-0.4,5.3,2.6c0.2,1.2-0.5,3.2-1.4,3.7c-1.1,0.6-3.3,0.5-4.2-0.3
	c-2.6-2-1.3-8.7,1.9-9.7c0.9-0.3,2.1,0,3.1,0C295.5,775.6,295.5,776,295.5,776.3z M290.6,781.6c0,0.3-0.1,0.7-0.1,1
	c0.8,0.7,1.6,1.8,2.5,2.1c0.4,0.1,2-1.4,1.9-1.9c-0.2-0.8-1.2-1.8-2-2.1C292.3,780.4,291.3,781.3,290.6,781.6z"/>
<path d="M0.6,775.6c-1.9,0.9-4.1,0.5-4.6,3.4c2.6-0.4,5-0.2,5.2,2.9c0.1,1.2-0.6,2.9-1.5,3.5c-0.9,0.6-2.9,0.6-3.8,0
	c-2.4-1.7-1.9-4.4-1.4-6.8c0.5-2.2,2-3.4,4.2-3.5C-0.7,774.9-0.1,775.4,0.6,775.6z M-2.6,785.1c0.3,0,0.6,0,0.9,0
	c0.5-0.8,1.6-1.8,1.4-2.4c-0.2-0.8-1.3-1.7-2.2-2c-0.4-0.1-1.9,1.1-1.8,1.5C-4,783.3-3.2,784.2-2.6,785.1z"/>
<path d="M885.5,776.2c-1.9,0.1-3.9,0.1-4.5,2.7c2.1-0.1,4.3-0.6,5.2,2.1c0.7,2-0.1,4.1-1.9,4.8c-2.2,0.8-4.3-0.3-4.8-2.6
	c-1-4.1,0.6-7.7,3.8-8.2c0.7-0.1,1.5,0.2,2.2,0.4C885.6,775.7,885.5,776,885.5,776.2z M882.6,785.1c0.3,0,0.6,0,1-0.1
	c0.5-0.8,1.5-1.8,1.3-2.4c-0.2-0.8-1.3-1.6-2.2-2c-0.3-0.1-1.7,1.2-1.7,1.6C881.2,783.3,882,784.2,882.6,785.1z"/>
<path d="M590.4,776.1c-3.4,0.5-3.4,0.5-4.3,2.8c2.1-0.1,4.2-0.6,5.1,2.1c0.7,2-0.1,4.1-1.9,4.8c-2.2,0.8-4.3-0.3-4.8-2.6
	c-1-4.2,0.6-7.7,3.8-8.2c0.7-0.1,1.5,0.3,2.2,0.4C590.5,775.7,590.5,775.9,590.4,776.1z M587.7,779.6c-0.9,1.3-1.9,2.3-1.7,2.7
	c0.4,1,1.4,1.7,2.1,2.5c0.6-0.7,1.8-1.5,1.7-2.2C589.8,781.8,588.7,781,587.7,779.6z"/>
<path d="M-334.1,764.9c1.9-1.8,3.5-3.3,5.1-4.8c0.2,0.2,0.5,0.4,0.7,0.7c-0.9,1-1.7,2.1-2.6,2.9c-1.3,1.2-1.2,2.2-0.1,3.4
	c1.1,1.1,2,2.3,3.4,3.9c-3.4,0.1-3.7-3.2-6.2-4c-0.3,1.4-0.6,2.7-0.9,4.1c-1.5-1.4-1.6-8.8,0-11.1
	C-334.5,761.8-334.3,763.1-334.1,764.9z"/>
<path d="M957.2,782.6c-4.4-0.2-6.1-1.3-5.6-4.3c0.2-1.2,1.5-2.8,2.6-3.1c1.1-0.3,2.9,0.5,3.7,1.4c1.5,1.6,0.9,6.4-0.7,7.9
	c-1.4,1.4-2.9,1.9-4.9,0.4c0.9-0.2,1.9-0.2,2.7-0.6C955.9,784,956.5,783.2,957.2,782.6z M957.5,779.6c0-0.4,0.1-0.7,0.1-1.1
	c-0.9-0.7-1.7-1.7-2.7-2.1c-0.3-0.1-1.6,1.3-1.7,2.1c-0.2,1.2,0.4,2.6,2.1,2.4C956,780.7,956.7,780,957.5,779.6z"/>
<path d="M-165.7,782c-4.1,0.4-5.4-0.4-5.4-3.3c0-2,0.9-3.2,2.7-3.6c1.9-0.4,3.3,0.4,4.1,2.1c1.1,2.3,0.3,6.4-1.5,7.9
	c-1.5,1.2-2.8,1.3-4.5,0C-168.3,784.6-166.1,784.7-165.7,782z M-165.2,779.6c0-0.4,0.1-0.7,0.1-1.1c-0.9-0.7-1.7-1.7-2.7-2.1
	c-0.3-0.1-1.6,1.2-1.7,2c-0.2,1.3,0.3,2.6,2,2.4C-166.6,780.7-165.9,780.1-165.2,779.6z"/>
<path d="M-22.6,784.8c2.1,0,3.9-0.2,4.5-2.8c-0.7,0.1-1.3,0.2-2,0.2c-1.7,0-3.1-0.5-3.4-2.5c-0.3-2.1,0.1-3.9,2.4-4.6
	c1.8-0.5,3.8,0,4.1,1.8c0.4,2.3,0.2,4.9-0.6,7.1c-0.3,1-2.5,1.4-3.9,1.9c-0.3,0.1-0.7-0.3-1.1-0.5C-22.7,785.2-22.6,785-22.6,784.8z
	 M-17.6,779.5c0-0.4,0.1-0.7,0.1-1.1c-0.9-0.7-1.7-1.6-2.8-2c-0.3-0.1-1.5,1.3-1.7,2.1c-0.2,1.3,0.4,2.6,2.1,2.3
	C-19.1,780.7-18.4,780-17.6,779.5z"/>
<path d="M-349.2,342.4c4.2-3.8,4-7.3,0.3-10.9c1.4-0.1,1.4-0.1,4.7,3.8c1.1-1.5,2.1-3,3.2-4.5c0.3,0.2,0.6,0.4,0.9,0.6
	c-0.6,1-1,2.1-1.7,3c-1.1,1.4-1.7,2.7-0.2,4.3c0.9,0.9,1.3,2.3,2,3.6c-2.9,0-2.7-2.8-4.1-4.2C-346,339.1-345.6,342.4-349.2,342.4z"
	/>
<path d="M124.3,784.8c2.6,0,4.5-0.2,5-2.8c-0.7,0.1-1.3,0.2-1.9,0.2c-1.7,0-3.1-0.5-3.4-2.5c-0.3-2.1,0-3.9,2.3-4.6
	c1.8-0.6,3.3,0.1,4.2,1.8c1.2,2.2,0.5,6.6-1.3,8.1C127.7,786.2,126.4,786.3,124.3,784.8z M129.8,779.6c0-0.4,0.1-0.7,0.1-1.1
	c-0.9-0.8-1.7-1.7-2.7-2.1c-0.3-0.1-1.6,1.2-1.7,2c-0.2,1.3,0.3,2.6,2,2.4C128.4,780.7,129.1,780.1,129.8,779.6z"/>
<path d="M276.9,781.9c-0.7,0.1-1.3,0.3-1.8,0.3c-1.7,0-3.2-0.4-3.5-2.4c-0.3-2.1-0.1-3.9,2.2-4.7c1.9-0.6,3.4,0,4.4,1.9
	c1.2,2.5,0.3,6.8-1.7,8.2c-1.5,1.1-2.8,1-4.2-0.3C274.3,784.7,276.4,784.7,276.9,781.9z M277.3,779.8c0.1-0.4,0.1-0.7,0.2-1.1
	c-0.9-0.8-1.6-1.8-2.6-2.2c-0.3-0.1-1.7,1.2-1.8,2c-0.2,1.2,0.2,2.7,1.9,2.5C275.8,780.8,276.5,780.1,277.3,779.8z"/>
<path d="M-268.5,330.9c1.1,1.5,2.1,3,3.3,4.6c1.1-1.6,2.2-3.1,3.2-4.6c0.3,0.2,0.6,0.4,0.9,0.7c-1,1.7-2.1,3.4-3.1,5.2
	c1,1.7,2,3.5,3.2,5.7c-3.1-0.1-2.8-2.9-4.2-4.2c-1.7,1-1.3,4.2-4.8,4.2c4.1-3.7,3.9-7.4,0.2-11C-269.5,331.2-269,331-268.5,330.9z"
	/>
<path d="M933.9,780.5c0-3.8,1.1-5.6,3.5-5.5c2.4,0,3.5,1.9,3.5,5.6c0,3.9-1.2,5.6-3.9,5.4C934.8,785.9,933.9,784.3,933.9,780.5z
	 M934.8,779.9c0.9,2.1,0,4.8,2.6,4.7c2.5,0,2-2.7,2-4.4c0-1.6,0.3-3.9-2-3.7C936.5,776.6,935.7,778.7,934.8,779.9z"/>
<path d="M575.4,780.5c0-3.8,1.1-5.6,3.5-5.6c2.4,0,3.6,1.9,3.6,5.8c-0.1,3.9-1.5,5.7-4.3,5.2C576.2,785.6,575.4,784,575.4,780.5z
	 M581,780.4c-0.3-1.6,0.4-4-2.2-4c-2.4,0.1-1.9,2.4-1.9,3.9c0,1.7-0.6,4.3,2,4.3C581.4,784.6,580.8,782.1,581,780.4z"/>
<path d="M435,779.9c0,4.7-1.3,6.4-4.1,6.1c-2.3-0.3-3.1-2-2.9-6.2c0.1-3.1,1.2-4.7,3.3-4.8c1.7,0,2.9,0.7,3.3,2.4
	C434.8,778.4,434.9,779.5,435,779.9z M429.4,780.5c0.4,1.5-0.6,4.2,2.1,4.2c2.5,0,2-2.6,2-4.4c0-1.6,0.4-3.8-2-3.8
	C429,776.4,429.7,778.8,429.4,780.5z"/>
<path d="M721.2,780.5c-0.1,4.1-1.3,5.8-4.1,5.4c-2.2-0.3-3.1-2.1-3-6c0.1-3.3,1.2-4.9,3.3-5c1.7-0.1,2.9,0.7,3.3,2.4
	C720.9,778.4,721,779.5,721.2,780.5z M719.6,780.6c-0.3-1.6,0.6-4.1-2-4.1c-2.5-0.1-2,2.4-2,4c0,1.7-0.4,4.1,1.9,4.2
	C720,784.7,719.3,782.2,719.6,780.6z"/>
<path d="M573.7,780.5c-0.1,4.1-1.3,5.8-4.1,5.4c-2.2-0.3-3.1-2.1-3-6c0.1-3.3,1.2-4.9,3.3-5c1.7-0.1,2.9,0.7,3.3,2.4
	C573.4,778.4,573.5,779.5,573.7,780.5z M572,781.1c0-1.1,0.2-1.8,0-2.2c-0.5-0.9-1.2-1.7-1.8-2.6c-0.7,0.9-1.5,1.7-2.1,2.6
	c-0.3,0.4-0.1,1.1-0.1,1.7c0.1,1.6-0.3,3.9,1.9,4C572.5,784.7,571.8,782.3,572,781.1z"/>
<path d="M-320.2,381.8c-0.1,0.9-0.1,1.9-0.3,2.7c-0.4,1.6-1.4,2.6-3.2,2.6c-1.7,0-3-0.8-3.2-2.5c-0.2-1.9-0.2-3.9,0-5.9
	c0.2-1.8,1.6-3,3.3-2.6c1.2,0.3,2.3,1.6,3,2.7C-320.1,379.7-320.3,380.9-320.2,381.8z M-321.8,381.6c-0.3-1.5,0.5-4-2.1-4
	c-2.3,0-2,2.3-2,3.9c0,1.7-0.5,4.3,2.1,4.3C-321.3,385.8-322.1,383.2-321.8,381.6z"/>
<path d="M426.2,780.5c-0.1,4.1-1.3,5.8-4.1,5.4c-2.2-0.3-3.1-2.1-3-6c0.1-3.3,1.2-4.9,3.3-5c1.7-0.1,2.9,0.7,3.3,2.4
	C425.9,778.4,426,779.5,426.2,780.5z M424.6,780.3c-0.4-1.4,0.6-3.9-2.1-3.9c-2.4,0-1.9,2.3-1.9,3.9c0,1.7-0.5,4.3,2.1,4.3
	C425.1,784.6,424.3,782.1,424.6,780.3z"/>
<path d="M-358.9,471.5c0-3.6,1.1-5.3,3.4-5.4c2.4-0.1,3.6,1.7,3.7,5.4c0,3.9-1,5.5-3.4,5.6C-357.8,477.2-359,475.5-358.9,471.5z
	 M-353.3,471.4c-0.4-1.4,0.4-3.9-2.2-3.8c-2.3,0.1-1.9,2.4-1.9,3.9c0,1.7-0.5,4.3,2.1,4.2C-352.9,475.7-353.6,473.2-353.3,471.4z"/>
<path d="M-337.8,765.8c-0.1,1-0.2,1.9-0.4,2.8c-0.4,1.6-1.4,2.6-3.2,2.6c-1.7,0-3-0.8-3.2-2.5c-0.2-1.9-0.3-4,0-5.9
	c0.2-1.8,1.5-2.7,3.4-2.7c1.7,0.1,2.7,1.1,3.1,2.7C-338,763.9-337.9,764.9-337.8,765.8z M-339.4,765.7c-0.3-1.6,0.5-4.1-2-4.1
	c-2.5,0-2,2.4-2,4c0,1.6-0.5,4.1,2,4.1C-338.9,769.8-339.7,767.3-339.4,765.7z"/>
<path d="M-359,381.6c0-3.7,1.3-5.5,3.6-5.4c2.3,0.1,3.4,1.8,3.4,5.4c0,3.9-1.1,5.7-3.7,5.6C-357.9,387.1-359,385.4-359,381.6z
	 M-352.8,381.2c-0.8-1.2-1.6-3.5-2.5-3.5c-2.5-0.1-2.1,2.2-2.1,3.9c0,1.7-0.5,4.3,2.1,4.2C-352.9,385.7-353.6,383.2-352.8,381.2z"/>
<path d="M-320.2,472.1c-0.2,0.9,0,2.2-0.6,2.9c-0.7,0.9-2,2-3,2c-1,0-2.7-1.1-2.9-2c-0.5-1.9-0.4-4.1-0.3-6.1
	c0.1-1.8,1.4-2.8,3.2-2.8c1.8,0,2.9,1.1,3.3,2.8C-320.3,469.9-320.3,470.9-320.2,472.1z M-321.8,471.8c-0.3-1.6,0.5-4.1-1.9-4.1
	c-2.6-0.1-2.1,2.5-2.1,4.2c0,1.6-0.3,3.9,1.9,3.9C-321.3,475.8-322.1,473.4-321.8,471.8z"/>
<path d="M868.7,780c0,4.6-1.3,6.3-4.1,5.9c-2.1-0.3-3.1-2.2-3-5.8c0.1-3.5,1.2-5.2,3.4-5.2c1.7-0.1,2.9,0.8,3.3,2.4
	C868.6,778.4,868.6,779.5,868.7,780z M867.3,780.3c-0.6-1.3,0.6-3.9-2.1-3.9c-2.4,0-1.9,2.4-2,3.9c0,1.7-0.5,4.3,2.1,4.3
	C867.7,784.6,866.9,782.1,867.3,780.3z"/>
<path d="M-189.7,332.6c0.4-0.4,0.9-1.3,1.5-1.4c1.6-0.4,3.3-0.6,4.3,1.3c1,1.9,0.4,3.5-0.9,5c-0.9,1-1.8,2.1-2.9,3.4
	c1.8,0.2,3.3,0.4,4.7,0.5c0,0.3-0.1,0.5-0.1,0.8c-2.2,0-4.5,0-7.1,0c0.4-0.7,0.6-1.5,1-2c0.7-0.9,1.6-1.7,2.2-2.6
	c0.7-1.2,1.2-2.5,1.8-3.8C-186.5,333.4-187.8,333.1-189.7,332.6z"/>
<path d="M-302.7,331c1.7,2.8,2.2,6.1,3.6,9.2c1.4-3,1.9-6.4,3.6-9.2c0.3,0.1,0.7,0.3,1,0.4c-1.2,3.5-2.3,7-3.6,10.4
	c-0.1,0.3-2,0.3-2.1,0.1c-1.3-3.4-2.4-6.9-3.6-10.4C-303.4,331.3-303,331.2-302.7,331z"/>
<path d="M-329.3,419.8c-2.1,0-4.3,0-7.1,0c1-1.4,1.8-2.6,2.7-3.7c0.3-0.5,1-0.8,1.2-1.3c0.5-1.1,0.8-2.3,1.2-3.5
	c-1.1-0.1-2.3-0.2-3.4-0.3c-0.2,0-0.5,0-1.3,0c0.5-0.8,0.9-1.9,1.3-1.9c1.3-0.2,2.9-0.4,3.7,0.3c0.9,0.7,1.5,2.6,1.2,3.7
	c-0.4,1.6-1.8,2.9-2.8,4.3c-0.2,0.3-0.7,0.4-1.1,0.6c0.1,0.2,0.2,0.4,0.3,0.7c1.4,0.2,2.8,0.4,4.2,0.6
	C-329.2,419.3-329.3,419.5-329.3,419.8z"/>
<path d="M412.1,784.3c2.2,0.2,3.6,0.4,5.1,0.5c0,0.3-0.1,0.6-0.1,0.8c-2.2,0-4.3,0-7.1,0c0.6-0.9,1-1.7,1.5-2.4c1-1.2,2.2-2.2,3-3.5
	c0.5-0.7,0.7-2.4,0.3-2.7c-0.7-0.5-1.9-0.4-2.9-0.5c-0.4,0-0.7,0.2-1.6,0.5c0.5-2.2,2-2.1,3.3-2.1c1.9,0,3.4,0.9,3.2,3
	c-0.2,1.4-1.1,2.8-2,4.1C414.2,782.8,413.3,783.3,412.1,784.3z"/>
<path d="M559.7,784.3c2.3,0.2,3.7,0.4,5.2,0.5c0,0.2,0,0.5,0,0.7c-2.2,0-4.4,0-7.2,0c0.5-0.8,0.8-1.6,1.3-2.2c1-1.3,2.3-2.4,3.2-3.7
	c0.4-0.7,0.6-2.2,0.1-2.6c-0.5-0.5-1.8-0.4-2.7-0.4c-0.4,0-0.8,0.2-2,0.6c0.7-1,1-1.8,1.2-1.8c1.6,0.1,3.7-0.1,4.8,0.7
	c1.6,1.2,0.7,3.3-0.3,4.7C562.6,782,561.3,782.9,559.7,784.3z"/>
<path d="M708.2,784.4c1.2,0.1,2.7,0.3,4.2,0.5c0,0.3-0.1,0.5-0.1,0.8c-2.2,0-4.5,0-7.3,0c0.7-1,1.2-1.8,1.7-2.5c1-1.2,2.2-2.2,3-3.6
	c0.4-0.7,0.6-2.1,0.2-2.6c-0.5-0.5-1.8-0.4-2.7-0.5c-0.4,0-0.9,0.2-1.5,0c0.7-1.8,2.3-1.8,3.8-1.5c1.8,0.3,3,1.7,2.3,3.4
	C711,780.6,709.5,782.4,708.2,784.4z"/>
<path d="M854.9,784.3c2.1,0.2,3.6,0.4,5,0.5c0,0.2,0,0.5,0,0.7c-2.2,0-4.4,0-7.2,0c0.5-0.8,0.9-1.6,1.4-2.3c1-1.3,2.3-2.4,3.2-3.7
	c0.4-0.7,0.5-2,0.1-2.7c-0.3-0.5-1.6-0.4-2.5-0.4c-0.5,0-0.9,0.3-1.4,0.4c0-1.5,0.8-2,2.7-2c2.1,0.1,3.6,1.3,3.2,3.2
	c-0.3,1.4-1.1,2.7-1.9,3.9C856.9,782.8,855.9,783.4,854.9,784.3z"/>
<path d="M925.8,776.9c0.4-2.3,2-2.1,3.5-1.9c1.7,0.2,2.8,1.4,2.4,3.1c-0.3,1.4-1.3,2.8-2.1,4.1c-0.5,0.7-1.2,1.3-2,2.1
	c1.7,0.2,3.1,0.3,4.6,0.5c0,0.3-0.1,0.5-0.1,0.8c-2.2,0-4.3,0-7.1,0c0.6-0.9,0.9-1.7,1.5-2.4c1-1.2,2.2-2.2,3-3.5
	c0.5-0.7,0.7-2.4,0.3-2.7c-0.7-0.5-1.9-0.4-2.9-0.5C926.5,776.6,926.2,776.8,925.8,776.9z"/>
<path d="M-286.7,332.9c-1.5,0-2.9,0-4.6,0c-0.1,0.9-0.1,1.7-0.2,2.6c1.5,0.1,2.9,0.3,4.2,0.4c0,0.2,0,0.5,0.1,0.7
	c-1.3,0.2-2.6,0.4-4,0.5c-1.1,1.5,0.6,3.8-1.6,5.7c0-4.2,0-7.8,0-11.7c2.1,0.4,4.5-0.9,6.4,0.8
	C-286.6,332.2-286.6,332.6-286.7,332.9z"/>
<path d="M-367.4,475.6c1.7-0.5,4.4,1.7,4.9-1.4c0.2-1-1.3-2.2-2-3.3c0.4-0.6,1.1-1.6,1.7-2.6c-1.4-0.2-2.7-0.5-4.6-0.8
	c0.6-0.4,1.3-1.2,1.8-1.1c1.4,0.1,3,0.3,4,1.1c0.6,0.5,0.1,2.3-0.2,3.5c1.4,2.5,1.3,4.8-0.6,5.9
	C-364.1,477.7-366.5,477.2-367.4,475.6z"/>
<path d="M-333.3,475.5c1.4,0.2,2.7,0.4,4.1,0.5c0,0.2,0,0.5-0.1,0.7c-2.1,0-4.3,0-6.9,0c0.5-0.9,0.8-1.6,1.3-2.2
	c1-1.2,2.2-2.3,3-3.6c0.5-0.7,0.8-2.1,0.4-2.6c-0.4-0.6-1.7-0.5-2.6-0.6c-0.4-0.1-0.9,0.2-1.4,0.3c0.3-1.6,1.7-2.2,3.6-1.8
	c2,0.5,3,2.1,2.1,4C-330.7,472-332,473.6-333.3,475.5z"/>
<path d="M-333.3,385.6c0.7,0.1,1.4,0.1,2.1,0.2c0.7,0.1,1.3,0.2,2,0.3c0,0.2,0,0.4-0.1,0.7c-2.2,0-4.4,0-7.2,0
	c0.8-1.1,1.4-1.8,1.9-2.5c1-1.2,2.1-2.3,2.9-3.6c0.4-0.6,0.4-1.9,0.1-2.5c-0.3-0.5-1.5-0.5-2.2-0.5c-0.6,0-1.2,0.2-2.5,0.5
	c1.5-2.3,3.1-2.1,4.6-1.8c1.6,0.3,2.5,1.6,2.1,3.2c-0.3,1.3-1.1,2.6-1.9,3.7c-0.5,0.8-1.5,1.2-2.2,1.8
	C-333.6,385.2-333.5,385.4-333.3,385.6z"/>
<path d="M-353.3,761.9c0.6-1.6,2-2.1,3.7-1.7c1.7,0.4,2.7,1.5,2.3,3.2c-0.4,1.4-1.2,2.7-2,3.9c-0.5,0.7-1.2,1.2-2.2,2.2
	c1.9,0.2,3.3,0.3,4.7,0.5c0,0.2,0,0.5-0.1,0.7c-2.2,0-4.3,0-7,0c0.6-0.9,1.1-1.7,1.7-2.4c0.9-1.2,2.1-2.2,2.8-3.4
	c0.4-0.7,0.7-2.1,0.3-2.7c-0.4-0.5-1.7-0.4-2.7-0.5C-352.3,761.7-352.8,761.8-353.3,761.9z"/>
<path d="M-203,342.4c1.6-3.2,3-6.1,4.6-9.4c-1.9,0-3.6,0-5.3,0c0.1-2.1,1-2.3,6.4-1.7C-196.6,333.9-200.5,341.9-203,342.4z"/>
<path d="M-285.2,342.2c1.7-3.7,1.7-7.2-0.4-10.9c1.5,0,2.6,0,4.1,0c-1.6,3.6-1.7,7.1-0.2,10.9C-282.8,342.2-284.1,342.2-285.2,342.2
	z"/>
<path d="M-26.6,785.7c-1.2,0-3,0-4.7,0c2.5-0.8,2-2.8,2-4.6c0-1.7,0.8-3.8-2.4-4c1.4-0.8,2.4-1.4,3.9-2.2c0,2.5-0.1,4.7,0.1,6.9
	C-27.8,783.1-27.1,784.3-26.6,785.7z"/>
<path d="M874.9,774.7c0,2.7-0.1,4.8,0.1,6.9c0.1,1.3,0.8,2.6,1.2,4c-1.1,0-2.9,0-4.6,0c-0.1-0.1-0.1-0.2-0.2-0.4
	c0.6-0.3,1.3-0.6,2.1-1.1c-1-2.2,1.7-5.4-2.2-7.2C872.4,776.3,873.3,775.7,874.9,774.7z"/>
<path d="M121.9,785.7c-2.2,0-3.9,0-5.7,0c3.6-1.6,1.5-4.7,1.9-7.1c0.1-0.4-1.1-1-1.8-1.7c0.8-0.5,1.8-1.1,2.9-1.8
	C120.9,778.3,117.5,782.8,121.9,785.7z"/>
<path d="M-147.6,785.7c-1.2,0-2.9,0-4.7,0c2.4-0.8,2-2.8,2-4.6c-0.1-1.7,0.8-3.8-2.4-4c1.4-0.8,2.4-1.4,3.9-2.3
	c0,2.5-0.1,4.7,0.1,6.9C-148.8,783.1-148.1,784.3-147.6,785.7z"/>
<path d="M723.8,777c1.1-0.7,2.1-1.3,3.6-2.2c0,2.5,0,4.6,0,6.7c0,1.7-0.3,3.5,2,4.2c-1.8,0-3.5,0-5.3,0c-0.1-0.1-0.1-0.2-0.2-0.4
	c0.6-0.3,1.3-0.6,2.2-1.1C725,782,727.8,778.7,723.8,777z"/>
<path d="M-178.8,776.9c1-0.6,1.9-1.1,3.4-1.9c0,2.5,0.1,4.8,0,7.1c0,1.6-0.1,3,2,3.6c-1.8,0-3.6,0-5.5,0
	C-176,783.6-176,778.7-178.8,776.9z"/>
<path d="M148,785.7c-1.8,0-3.5,0-5.3,0c0.7-0.9,1.6-1.6,1.9-2.5c0.3-1.2,0.3-2.5,0-3.7c-0.2-0.9-0.9-1.7-1.6-2.8
	c0.1-0.1,0.7-0.2,1.2-0.5c0.5-0.3,0.9-0.7,1.9-1.5c0,2.8,0.1,5.1,0,7.4c-0.1,1.6,0,3,2.2,3.1C148.2,785.3,148.1,785.5,148,785.7z"/>
<path d="M269.1,785.7c-1.9,0-3.7,0-5.5,0c3.5-1.6,1.6-4.6,1.9-6.9c0.1-0.5-1-1.2-1.7-2c0.8-0.4,1.7-1,2.8-1.7
	C268.4,778.3,265.2,782.6,269.1,785.7z"/>
<path d="M-179.9,333.3c0.7-0.6,1.6-1.4,3.1-2.7c0,3,0,5.5,0,7.9c0,1.6-0.1,3,2,3.6c-1.8,0-3.6,0-5.4,0c3.5-1.3,1.7-4.2,1.9-6.4
	C-178.2,335-179.3,334.2-179.9,333.3z"/>
<path d="M736.2,774.8c0,2.7,0,4.9,0,7.1c0,1.5-0.3,3.1,2,3.6c-1.8,0-3.6,0-6.2,0c4.4-1.4,2.4-4.5,2.7-6.8c0.1-0.5-1.1-1.2-1.8-2
	C733.7,776.4,734.7,775.8,736.2,774.8z"/>
<path d="M441.2,774.8c0,2.7,0,4.9,0,7.2c0,1.6-0.1,3,2,3.6c-1.8,0-3.6,0-5.4,0c3.6-1.4,1.6-4.4,1.9-6.6c0.1-0.6-1-1.4-1.7-2.2
	C438.7,776.4,439.7,775.8,441.2,774.8z"/>
<path d="M949.1,785.7c-1.8,0-3.5,0-5.3,0c2.1-0.9,2.2-2.6,2-4.4c-0.2-1.6,1.1-3.9-2.5-4.1c1.3-0.9,2.3-1.5,3.9-2.5
	c0,2.5,0,4.5,0,6.6C947.2,783.1,946.9,784.9,949.1,785.7z"/>
<path d="M-226.6,344.6c0.4-1.6,0.1-3.5,1.9-4.4c0.3,0.1,0.6,0.3,0.9,0.4c-0.6,1.5-1.3,2.9-1.9,4.4
	C-226.1,344.9-226.3,344.8-226.6,344.6z"/>
<path class="st0" d="M-209.8,336c1.1,1.6,2.1,2.4,2.3,3.4c0.1,0.5-1.2,1.3-1.9,1.9c-0.7-0.8-1.7-1.4-2-2.3
	C-211.5,338.4-210.6,337.5-209.8,336z"/>
<path class="st0" d="M-209.9,331.5c1.8,1.5,3.3,2.4,1.8,3.9c-0.3,0.3-1.7-0.3-2.5-0.5C-210.4,333.9-210.2,333-209.9,331.5z"/>
<path class="st0" d="M-250.3,341.7c-0.6-0.9-1.5-1.7-1.5-2.6c-0.1-0.7,1-1.4,1.5-2.1c0.8,0.8,1.9,1.4,2.4,2.4
	c0.2,0.5-0.9,1.5-1.4,2.3C-249.6,341.7-250,341.7-250.3,341.7z"/>
<path class="st0" d="M-250.4,331.4c1.8,1.5,3.3,2.4,1.9,3.9c-0.3,0.3-2.3-0.1-2.4-0.5C-251.2,334-250.7,333-250.4,331.4z"/>
<path class="st0" d="M-8,783c-1.5,0.9-2.3,1.9-2.9,1.7c-0.8-0.2-1.7-1.1-2-1.9c-0.2-0.4,1-1.9,1.4-1.8C-10.6,781.3-9.7,782.1-8,783z
	"/>
<path class="st0" d="M-8.5,777.5c-1,0.9-1.8,1.8-2.1,1.7c-0.8-0.3-1.5-1.1-2.2-1.7c0.6-0.5,1.1-1.3,1.7-1.4
	C-10.4,776.1-9.7,776.9-8.5,777.5z"/>
<path class="st0" d="M-155.6,783.2c-1.5,0.8-2.4,1.7-3,1.6c-0.8-0.2-1.7-1.1-2-1.9c-0.2-0.4,1.1-1.9,1.4-1.8
	C-158.2,781.4-157.3,782.2-155.6,783.2z"/>
<path class="st0" d="M-158,779.9c-1.1-1-1.8-1.6-2.4-2.2c0.5-0.5,1-1.5,1.5-1.5c0.7,0.1,1.6,0.7,1.9,1.3
	C-156.8,778-157.5,778.8-158,779.9z"/>
<path class="st0" d="M-364.1,766.5c-1.1-1.4-2.1-2.3-2.1-3c0-0.7,1.2-1.4,1.9-2.1c0.7,0.8,1.6,1.5,2,2.4
	C-362.1,764.3-363.1,765.2-364.1,766.5z"/>
<path class="st0" d="M-237.8,338.6c-1.4,1.3-2.1,2.5-2.9,2.6c-1.8,0.1-2.4-1.4-2.2-2.9c0.1-0.6,1.2-1.7,1.7-1.6
	C-240.2,336.8-239.3,337.7-237.8,338.6z"/>
<path class="st0" d="M-346.4,472.5c-1.1-1.4-2.1-2.3-2.1-3c0-0.7,1.2-1.4,1.9-2.1c0.7,0.8,1.6,1.5,2,2.4
	C-344.5,470.3-345.5,471.2-346.4,472.5z"/>
<path class="st0" d="M-234.1,336.8c0.3-1.5-0.4-3.8,2-3.8c2.4,0,2,2.2,2,3.8c0.1,0.9,0,1.9-0.3,2.7c-0.3,0.7-1.1,1.2-1.7,1.8
	c-0.6-0.7-1.4-1.2-1.8-2C-234.2,338.6-234,337.6-234.1,336.8z"/>
<path class="st0" d="M-346.4,415.5c-1.1-1.4-2.1-2.3-2.1-3c0-0.7,1.2-1.4,1.9-2.1c0.7,0.8,1.6,1.5,2,2.4
	C-344.5,413.3-345.5,414.2-346.4,415.5z"/>
<path class="st0" d="M-367.3,416.1c1.6-0.9,2.5-1.9,3.1-1.7c0.9,0.3,2,1.3,2,2.1c0,0.8-1.1,1.6-1.7,2.4
	C-364.8,418.2-365.7,417.4-367.3,416.1z"/>
<path class="st0" d="M-218.1,337.9c-1.1-1.4-2.1-2.2-2.1-3c0-0.7,1.2-1.4,1.8-2.1c0.8,0.8,1.7,1.6,2.1,2.5
	C-216.1,335.7-217.1,336.6-218.1,337.9z"/>
<path class="st0" d="M-361.2,380c-1.4,1-2.4,2.1-2.8,1.9c-0.9-0.4-1.9-1.4-2.2-2.3c-0.1-0.5,1.3-2.1,1.8-2
	C-363.4,377.8-362.6,378.8-361.2,380z"/>
<path class="st0" d="M-347.1,382.3c-0.5-0.9-1.5-1.9-1.5-2.8c0-0.7,1.2-1.4,1.9-2.1c0.7,0.9,1.7,1.7,2,2.7c0.2,0.6-0.9,1.5-1.4,2.2
	C-346.4,382.4-346.7,382.3-347.1,382.3z"/>
<path class="st0" d="M-358,414.2c0.8-1.2,1.6-3.4,2.5-3.5c2.5-0.1,2.1,2.3,2.1,3.9c0,1.6,0.5,4.1-1.9,4.2
	C-358,418.8-357.1,416.2-358,414.2z"/>
<path class="st0" d="M287.1,779.3c-1.6,0.8-2.3,1.5-3.1,1.6c-1.7,0.3-2.3-1.1-2-2.3c0.2-0.8,1.3-1.5,1.9-2.2
	C284.7,777.1,285.6,777.9,287.1,779.3z"/>
<path class="st0" d="M139.6,779.1c-1.5,0.9-2.2,1.6-3,1.8c-1.6,0.3-2.3-0.9-2.2-2.2c0.1-0.9,1.2-1.6,1.8-2.4
	C137.1,777,138,777.8,139.6,779.1z"/>
<path class="st0" d="M-324.3,334c0.4,1.1,0.8,2.2,1.3,3.6c-1.1,0-2,0-3.2,0c0.5-1.3,0.9-2.4,1.3-3.6C-324.6,334-324.4,334-324.3,334
	z"/>
<path class="st0" d="M-321.4,415.5c-0.6,0.9-1.4,3.1-2.3,3.1c-2.5,0.1-2-2.3-2.1-3.9c0-1.6-0.4-4.1,1.9-4.1
	C-321.1,410.6-322.2,413.3-321.4,415.5z"/>
<path class="st0" d="M290.6,781.6c0.8-0.4,1.7-1.2,2.2-1c0.9,0.4,1.9,1.3,2,2.1c0.1,0.5-1.4,2-1.9,1.9c-1-0.3-1.7-1.3-2.5-2.1
	C290.5,782.3,290.5,781.9,290.6,781.6z"/>
<path class="st0" d="M-2.6,785.1c-0.6-1-1.4-1.9-1.6-2.9c-0.1-0.4,1.4-1.7,1.8-1.5c0.9,0.3,2,1.2,2.2,2c0.2,0.6-0.9,1.6-1.4,2.4
	C-2,785.1-2.3,785.1-2.6,785.1z"/>
<path class="st0" d="M882.6,785.1c-0.6-0.9-1.4-1.8-1.6-2.8c-0.1-0.5,1.3-1.8,1.7-1.6c0.9,0.3,2,1.1,2.2,2c0.2,0.6-0.8,1.6-1.3,2.4
	C883.2,785.1,882.9,785.1,882.6,785.1z"/>
<path class="st0" d="M587.7,779.6c1.1,1.4,2.1,2.2,2.2,3c0,0.7-1.1,1.5-1.7,2.2c-0.8-0.8-1.7-1.6-2.1-2.5
	C585.8,781.9,586.8,781,587.7,779.6z"/>
<path class="st0" d="M957.5,779.6c-0.8,0.4-1.5,1.1-2.3,1.3c-1.7,0.3-2.3-1.1-2.1-2.4c0.1-0.8,1.4-2.2,1.7-2.1
	c1,0.4,1.8,1.3,2.7,2.1C957.6,778.9,957.5,779.2,957.5,779.6z"/>
<path class="st0" d="M-165.2,779.6c-0.8,0.4-1.5,1.1-2.3,1.2c-1.7,0.3-2.2-1.1-2-2.4c0.1-0.8,1.5-2.2,1.7-2c1,0.4,1.8,1.4,2.7,2.1
	C-165.1,778.9-165.1,779.3-165.2,779.6z"/>
<path class="st0" d="M-17.6,779.5c-0.7,0.5-1.4,1.2-2.2,1.3c-1.7,0.3-2.3-1-2.1-2.3c0.1-0.8,1.4-2.2,1.7-2.1c1,0.4,1.9,1.3,2.8,2
	C-17.6,778.8-17.6,779.2-17.6,779.5z"/>
<path class="st0" d="M129.8,779.6c-0.8,0.4-1.5,1.1-2.3,1.2c-1.7,0.2-2.2-1.1-2-2.4c0.1-0.8,1.5-2.2,1.7-2c1,0.4,1.8,1.4,2.7,2.1
	C129.9,778.9,129.9,779.3,129.8,779.6z"/>
<path class="st0" d="M277.3,779.8c-0.8,0.4-1.5,1-2.4,1.1c-1.8,0.2-2.2-1.3-1.9-2.5c0.2-0.8,1.6-2.1,1.8-2c1,0.5,1.8,1.5,2.6,2.2
	C277.4,779,277.4,779.4,277.3,779.8z"/>
<path class="st0" d="M934.8,779.9c0.9-1.2,1.6-3.3,2.6-3.4c2.4-0.2,2,2.1,2,3.7c0,1.7,0.6,4.3-2,4.4
	C934.8,784.7,935.7,782,934.8,779.9z"/>
<path class="st0" d="M581,780.4c-0.2,1.7,0.4,4.2-2,4.2c-2.6,0-2-2.6-2-4.3c0-1.6-0.5-3.9,1.9-3.9
	C581.4,776.4,580.7,778.8,581,780.4z"/>
<path class="st0" d="M429.4,780.5c0.3-1.7-0.4-4,2-4c2.4,0,2,2.3,2,3.8c0,1.7,0.5,4.3-2,4.4C428.7,784.7,429.8,781.9,429.4,780.5z"
	/>
<path class="st0" d="M719.6,780.6c-0.3,1.6,0.4,4.1-2.1,4.1c-2.4-0.1-2-2.5-1.9-4.2c0-1.6-0.5-4.1,2-4
	C720.2,776.5,719.3,779,719.6,780.6z"/>
<path class="st0" d="M572,781.1c-0.2,1.1,0.5,3.6-2.1,3.5c-2.2-0.1-1.8-2.4-1.9-4c0-0.6-0.2-1.3,0.1-1.7c0.6-0.9,1.4-1.7,2.1-2.6
	c0.6,0.9,1.3,1.7,1.8,2.6C572.2,779.4,572,780.1,572,781.1z"/>
<path class="st0" d="M-321.8,381.6c-0.3,1.6,0.5,4.1-2,4.1c-2.6,0-2.1-2.6-2.1-4.3c0-1.6-0.3-3.9,2-3.9
	C-321.3,377.6-322.1,380.1-321.8,381.6z"/>
<path class="st0" d="M424.6,780.3c-0.3,1.8,0.5,4.3-2,4.3c-2.6,0-2.1-2.6-2.1-4.3c0-1.6-0.4-3.9,1.9-3.9
	C425.2,776.4,424.2,778.9,424.6,780.3z"/>
<path class="st0" d="M-353.3,471.4c-0.3,1.7,0.4,4.3-2,4.3c-2.6,0.1-2.1-2.5-2.1-4.2c0-1.6-0.4-3.9,1.9-3.9
	C-352.9,467.5-353.7,470-353.3,471.4z"/>
<path class="st0" d="M-339.4,765.7c-0.3,1.6,0.4,4.1-2.1,4c-2.4,0-2-2.5-2-4.1c0-1.6-0.5-4.1,2-4
	C-338.9,761.6-339.7,764.1-339.4,765.7z"/>
<path class="st0" d="M-352.8,381.2c-0.8,2-0.1,4.5-2.5,4.6c-2.6,0.1-2.1-2.5-2.1-4.2c0-1.6-0.4-4,2.1-3.9
	C-354.4,377.7-353.6,380-352.8,381.2z"/>
<path class="st0" d="M-321.8,471.8c-0.3,1.6,0.5,4.1-2.1,4c-2.2-0.1-1.9-2.4-1.9-3.9c0-1.7-0.5-4.3,2.1-4.2
	C-321.3,467.7-322.1,470.2-321.8,471.8z"/>
<path class="st0" d="M867.3,780.3c-0.4,1.7,0.4,4.3-2,4.3c-2.6,0-2.1-2.6-2.1-4.3c0-1.5-0.4-3.9,2-3.9
	C867.8,776.4,866.7,779,867.3,780.3z"/>
</svg>
